<svg width="161" height="33" viewBox="0 0 161 33" fill="none" xmlns="http://www.w3.org/2000/svg">
<path d="M37.0523 26.4365L40.1473 7.14415H46.89C49.2481 7.14415 51.1457 7.55462 52.5826 8.37557C54.038 9.17828 55.0421 10.3276 55.5948 11.8236C56.1474 13.3195 56.258 15.1074 55.9264 17.1871C55.429 20.2702 54.1762 22.5871 52.1681 24.1378C50.1785 25.6703 47.544 26.4365 44.2648 26.4365H37.0523ZM41.0869 23.5084H44.3753C46.7334 23.5084 48.5665 22.9703 49.8745 21.8939C51.2009 20.8175 52.0392 19.1756 52.3892 16.9682C52.7577 14.5966 52.4537 12.8543 51.4773 11.7415C50.5009 10.6104 48.8336 10.0448 46.4755 10.0448H43.2147L41.0869 23.5084Z" fill="#272E38"/>
<path d="M56.72 26.4365L59.9532 6.29583H63.4074L61.9428 15.381H61.5283C62.081 14.3776 62.8179 13.6205 63.739 13.1097C64.6786 12.5989 65.7287 12.3435 66.8893 12.3435C68.5842 12.3435 69.7725 12.8361 70.4541 13.8212C71.1358 14.7881 71.32 16.2476 71.0068 18.1996L69.708 26.4365H66.2537L67.5525 18.1996C67.7368 17.0685 67.6447 16.2567 67.2762 15.7641C66.9077 15.2716 66.2814 15.0253 65.3971 15.0253C64.3286 15.0253 63.4443 15.3537 62.7442 16.0104C62.0442 16.6489 61.6112 17.5064 61.4454 18.5827L60.1742 26.4365H56.72Z" fill="#272E38"/>
<path d="M77.9579 26.7101C76.6867 26.7101 75.609 26.4 74.7247 25.7797C73.8404 25.1595 73.214 24.2838 72.8456 23.1527C72.4955 22.0034 72.4403 20.6534 72.6797 19.1027C73.0482 16.877 73.8772 15.1986 75.1668 14.0675C76.4748 12.9182 78.0315 12.3435 79.837 12.3435C80.9976 12.3435 81.9832 12.6263 82.7938 13.1918C83.6044 13.7391 84.0926 14.4871 84.2584 15.4358L83.9821 15.5178L84.7558 12.6172H88.0719C87.9245 13.1827 87.7772 13.7574 87.6298 14.3412C87.5008 14.9249 87.3903 15.4996 87.2982 16.0651L85.6401 26.4365H82.2135L82.6833 23.5084H83.1254C82.6649 24.4936 81.9924 25.278 81.1081 25.8618C80.2423 26.4274 79.1922 26.7101 77.9579 26.7101ZM79.0909 24.0831C80.1594 24.0831 81.0713 23.7182 81.8266 22.9885C82.6004 22.2405 83.107 21.1277 83.3465 19.65C83.6044 18.0446 83.4478 16.8679 82.8767 16.1199C82.324 15.3537 81.4858 14.9705 80.362 14.9705C79.2935 14.9705 78.3816 15.3445 77.6263 16.0925C76.8709 16.8222 76.3735 17.9168 76.134 19.3763C75.8761 20.9817 76.0235 22.1675 76.5761 22.9338C77.1288 23.7 77.9671 24.0831 79.0909 24.0831Z" fill="#272E38"/>
<path d="M93.9889 26.7101C92.7177 26.7101 91.64 26.4 90.7557 25.7797C89.8714 25.1595 89.245 24.2838 88.8766 23.1527C88.5265 22.0034 88.4713 20.6534 88.7108 19.1027C89.0792 16.877 89.9082 15.1986 91.1978 14.0675C92.5058 12.9182 94.0626 12.3435 95.868 12.3435C97.0286 12.3435 98.0142 12.6263 98.8248 13.1918C99.6354 13.7391 100.124 14.4871 100.289 15.4358L100.013 15.5178L100.787 12.6172H104.103C103.956 13.1827 103.808 13.7574 103.661 14.3412C103.532 14.9249 103.421 15.4996 103.329 16.0651L101.671 26.4365H98.2445L98.7143 23.5084H99.1564C98.6959 24.4936 98.0235 25.278 97.1392 25.8618C96.2733 26.4274 95.2232 26.7101 93.9889 26.7101ZM95.1219 24.0831C96.1904 24.0831 97.1023 23.7182 97.8576 22.9885C98.6314 22.2405 99.138 21.1277 99.3775 19.65C99.6354 18.0446 99.4788 16.8679 98.9077 16.1199C98.3551 15.3537 97.5168 14.9705 96.393 14.9705C95.3245 14.9705 94.4126 15.3445 93.6573 16.0925C92.9019 16.8222 92.4045 17.9168 92.165 19.3763C91.9071 20.9817 92.0545 22.1675 92.6072 22.9338C93.1598 23.7 93.9981 24.0831 95.1219 24.0831Z" fill="#272E38"/>
<path d="M104.327 26.4365L105.985 16.0651C106.077 15.4996 106.151 14.9249 106.206 14.3412C106.262 13.7574 106.298 13.1827 106.317 12.6172H109.661L109.495 15.3537H109.136C109.67 14.3503 110.361 13.6023 111.208 13.1097C112.074 12.5989 113.06 12.3435 114.165 12.3435C115.27 12.3435 116.164 12.608 116.845 13.1371C117.527 13.6661 117.914 14.4689 118.006 15.5452H117.536C118.071 14.5783 118.817 13.803 119.775 13.2192C120.733 12.6354 121.764 12.3435 122.87 12.3435C124.473 12.3435 125.605 12.8178 126.269 13.7665C126.95 14.7151 127.135 16.2111 126.821 18.2543L125.495 26.4365H122.041L123.367 18.1175C123.533 17.0412 123.459 16.2567 123.146 15.7641C122.851 15.2716 122.289 15.0253 121.46 15.0253C120.502 15.0253 119.71 15.3628 119.084 16.0378C118.457 16.6945 118.052 17.5885 117.868 18.7196L116.624 26.4365H113.17L114.497 18.1175C114.681 17.0412 114.616 16.2567 114.303 15.7641C114.008 15.2716 113.446 15.0253 112.617 15.0253C111.641 15.0253 110.84 15.3628 110.213 16.0378C109.605 16.6945 109.209 17.5885 109.025 18.7196L107.782 26.4365H104.327Z" fill="#272E38"/>
<path d="M132.675 26.4365L144.585 7.14415H147.57L153.401 26.4365H149.919L148.399 21.0182L149.698 21.976H138.008L139.639 21.0182L136.406 26.4365H132.675ZM145.58 10.9205L140.219 20.0604L139.639 19.2121H148.924L148.205 20.0604L145.691 10.9205H145.58Z" fill="#272E38"/>
<path d="M154.174 26.4365L156.385 12.6172H159.839L157.629 26.4365H154.174ZM156.606 10.0175L157.159 6.67894H161L160.447 10.0175H156.606Z" fill="#272E38"/>
<path d="M13.4511 0.5C16.8253 0.5 19.7739 1.17797 22.297 2.5339C24.8503 3.88983 26.811 5.77308 28.1789 8.18362C29.5468 10.5942 30.2308 13.3362 30.2308 16.4096C30.2308 19.4529 29.5468 22.1949 28.1789 24.6356C26.811 27.0763 24.8503 29.0047 22.297 30.4209C19.7739 31.807 16.8253 32.5 13.4511 32.5H3.0398C1.36096 32.5 0 31.1509 0 29.4868V18.6502L2.14092 19.3751L2.37017 19.4603C2.93241 19.6874 3.43895 20.0315 3.85563 20.4693C4.27231 20.907 4.58946 21.4283 4.78561 21.9979L5.64099 24.4807L5.70682 24.649C7.12831 30.4209 8.04025 30.4209 9.65902 24.4807L10.5144 21.9968L10.6004 21.7696C10.8295 21.2122 11.1766 20.71 11.6182 20.297C12.0598 19.8839 12.5856 19.5696 13.1602 19.3751L15.6648 18.5261L15.8346 18.463C20.7694 17.3738 20.9594 16.0556 15.6648 14.5441L13.1602 13.6962L12.9299 13.611C12.3678 13.3839 11.8612 13.04 11.4445 12.6024C11.0278 12.1649 10.7106 11.6439 10.5144 11.0745L9.65795 8.59168L9.59427 8.42339C7.81226 3.51318 7.12831 3.51318 5.64099 8.59055L4.78561 11.0745L4.69966 11.3017C4.47065 11.8589 4.12374 12.3611 3.68234 12.7741C3.24094 13.1872 2.71531 13.5017 2.14092 13.6962L0 14.421V3.51318C0 1.84905 1.36096 0.5 3.0398 0.5H13.4511Z" fill="#7C43DF"/>
</svg>
