
<svg xmlns="http://www.w3.org/2000/svg" width="1440" height="774" viewBox="0 0 1440 774" fill="none">
  <path d="M23.864 762.87L35.05 773.399M23.864 762.87H57.014M23.864 762.87L12.306 751.995M23.864 762.87H0.387M35.05 773.399L30.98 773.396L26.952 773.37L23.007 773.309L19.187 773.182L15.531 772.977L12.081 772.668L8.877 772.24L5.902 771.695L3.35 770.939L1.026 770.064L0.387 769.758V762.87M35.05 773.399H67.667M57.014 762.87L67.667 773.399M57.014 762.87H90.163M57.014 762.87L54.295 760.185L46.006 751.995M0.387 762.87L0.386 751.995M67.667 773.399H100.283M100.283 773.399H132.9M100.283 773.399L90.163 762.87M132.9 773.399H165.517M132.9 773.399L123.312 762.87M90.163 762.87H123.312M90.163 762.87L79.705 751.995M165.517 773.399H198.133M165.517 773.399L156.461 762.87M123.312 762.87H156.461M123.312 762.87L113.405 751.995M198.133 773.399H230.75M198.133 773.399L189.61 762.87M156.461 762.87H189.61M156.461 762.87L147.105 751.995M230.75 773.399H263.367M230.75 773.399L222.76 762.87M189.61 762.87H222.76M189.61 762.87L187.436 760.185L186.342 758.835L180.805 751.995M263.367 773.399H295.983M263.367 773.399L255.909 762.87M222.76 762.87H255.909M222.76 762.87L220.722 760.185L214.504 751.995M295.983 773.399H328.6M295.983 773.399L289.059 762.87M255.909 762.87H289.059M255.909 762.87L248.204 751.995M328.6 773.399H361.217M328.6 773.399L322.208 762.87M289.059 762.87H322.208M289.059 762.87L287.292 760.185L286.403 758.835L281.904 751.995M361.217 773.399H393.833M361.217 773.399L355.357 762.87M322.208 762.87H355.357M322.208 762.87L315.603 751.995M393.833 773.399H426.45M393.833 773.399L388.507 762.87M355.357 762.87H388.507M355.357 762.87L353.863 760.185L353.11 758.835L349.303 751.995M426.45 773.399H459.067M426.45 773.399L425.266 770.798L423.472 766.859L421.656 762.87M388.507 762.87H421.656M388.507 762.87L387.828 761.531L387.148 760.185L383.003 751.995M459.067 773.399H491.683M459.067 773.399L458.015 770.798L454.806 762.87M421.656 762.87H454.806M421.656 762.87L420.433 760.185L419.817 758.835L416.703 751.995M491.683 773.399H524.3M491.683 773.399L487.955 762.87M454.806 762.87H487.955M454.806 762.87L450.402 751.995M524.3 773.399H556.917M524.3 773.399L523.114 769.491L521.912 765.535L521.509 764.205L521.104 762.87M487.955 762.87H521.104M487.955 762.87L487.48 761.531L487.004 760.185L486.525 758.835L484.102 751.995M556.917 773.399H589.533M556.917 773.399L555.928 769.491L555.596 768.178L555.262 766.859L554.253 762.87M521.104 762.87H554.253M521.104 762.87L520.289 760.185L519.878 758.835L519.466 757.477L517.802 751.995M589.533 773.399H622.15M589.533 773.399L587.402 762.87M554.253 762.87H587.402M554.253 762.87L553.574 760.185L552.198 754.75L551.851 753.375L551.501 751.995M622.15 773.399L621.953 772.102L621.756 770.798L620.755 764.205L620.552 762.87M622.15 773.399H654.766M587.402 762.87H620.552M587.402 762.87L587.131 761.531L586.859 760.185L586.585 758.835L585.202 751.995M620.552 762.87H653.701M620.552 762.87L618.901 751.995M654.766 773.399H687.384M654.766 773.399L653.701 762.87M687.384 773.399H720M687.384 773.399L687.186 769.491L686.851 762.87M653.701 762.87H686.851M653.701 762.87L653.566 761.531L653.43 760.185L653.293 758.835L652.601 751.995M720 773.399H752.616M720 773.399V762.87M686.851 762.87H720M686.851 762.87L686.3 751.995M752.616 773.399H785.234M752.616 773.399L752.814 769.491L753.149 762.87M720 762.87H753.149M720 762.87V751.995M785.234 773.399H817.85M785.234 773.399L786.299 762.87M753.149 762.87H786.299M753.149 762.87L753.7 751.995M817.85 773.399L818.047 772.102L818.244 770.798L819.245 764.205L819.448 762.87M817.85 773.399H850.466M786.299 762.87H819.448M786.299 762.87L786.434 761.531L786.57 760.185L786.707 758.835L787.121 754.75L787.399 751.995M819.448 762.87H852.598M819.448 762.87L821.099 751.995M850.466 773.399H883.084M850.466 773.399L852.327 764.205L852.598 762.87M883.084 773.399H915.7M883.084 773.399L884.072 769.491L884.404 768.178L885.073 765.535L885.409 764.205L885.747 762.87M852.598 762.87H885.747M852.598 762.87L852.869 761.531L853.141 760.185L853.415 758.835L854.799 751.995M915.7 773.399H948.317M915.7 773.399L916.886 769.491L918.087 765.535L918.491 764.205L918.896 762.87M885.747 762.87H918.896M885.747 762.87L886.426 760.185L887.802 754.75L888.499 751.995M948.317 773.399H980.933M948.317 773.399L952.045 762.87M918.896 762.87H952.045M918.896 762.87L919.711 760.185L920.122 758.835L920.533 757.477L922.198 751.995M980.933 773.399H1013.55M980.933 773.399L981.985 770.798L985.194 762.87M952.045 762.87L952.52 761.531L955.898 751.995M952.045 762.87H985.194M1013.55 773.399H1046.17M1013.55 773.399L1018.34 762.87M985.194 762.87H1018.34M985.194 762.87L985.737 761.531L989.597 751.995M1046.17 773.399H1078.78M1046.17 773.399L1051.49 762.87M1018.34 762.87H1051.49M1018.34 762.87L1019.57 760.185L1020.18 758.835L1023.3 751.995M1078.78 773.399H1111.4M1078.78 773.399L1084.64 762.87M1051.49 762.87H1084.64M1051.49 762.87L1052.17 761.531L1052.85 760.185L1057 751.995M1111.4 773.399H1144.02M1111.4 773.399L1117.79 762.87M1084.64 762.87H1117.79M1084.64 762.87L1086.14 760.185L1086.89 758.835L1090.7 751.995M1144.02 773.399H1176.63M1144.02 773.399L1150.94 762.87M1117.79 762.87H1150.94M1117.79 762.87L1118.61 761.531L1124.4 751.995M1176.63 773.399H1209.25M1176.63 773.399L1184.09 762.87M1150.94 762.87H1184.09M1150.94 762.87L1152.71 760.185L1153.6 758.835L1158.1 751.995M1209.25 773.399H1241.87M1209.25 773.399L1217.24 762.87M1184.09 762.87H1217.24M1184.09 762.87L1191.8 751.995M1241.87 773.399H1274.48M1241.87 773.399L1250.39 762.87M1217.24 762.87H1250.39M1217.24 762.87L1219.28 760.185L1225.5 751.995M1274.48 773.399H1307.1M1274.48 773.399L1283.54 762.87M1250.39 762.87H1283.54M1250.39 762.87L1252.56 760.185L1253.66 758.835L1259.2 751.995M1307.1 773.399H1339.72M1307.1 773.399L1316.69 762.87M1283.54 762.87H1316.69M1283.54 762.87L1292.89 751.995M1339.72 773.399H1372.33M1339.72 773.399L1349.84 762.87M1316.69 762.87H1349.84M1316.69 762.87L1326.6 751.995M1372.33 773.399H1404.95M1372.33 773.399L1382.99 762.87M1349.84 762.87H1382.99M1349.84 762.87L1360.29 751.995M1404.95 773.399L1409.02 773.396L1413.05 773.37L1416.99 773.309L1420.81 773.182L1424.47 772.977L1427.92 772.668L1431.12 772.24L1434.1 771.695L1436.65 770.939L1438.97 770.064L1439.61 769.758V762.87M1404.95 773.399L1416.14 762.87M1382.99 762.87H1416.14M1382.99 762.87L1385.7 760.185L1393.99 751.995M1439.61 762.87H1416.14M1439.61 762.87V751.995M1416.14 762.87L1427.69 751.995M1360.29 751.995L1371.1 740.752M1360.29 751.995H1326.6M1360.29 751.995H1393.99M1326.6 751.995L1336.84 740.752M1326.6 751.995H1292.89M1225.5 751.995L1234.03 740.752M1225.5 751.995H1191.8M1225.5 751.995H1259.2M1191.8 751.995L1199.76 740.752M1191.8 751.995H1158.1M1090.7 751.995L1096.96 740.752M1090.7 751.995H1057M1090.7 751.995H1124.4M1057 751.995L1060.53 745.011L1062.69 740.752M1057 751.995H1023.3M955.898 751.995L959.881 740.752M955.898 751.995H922.198M955.898 751.995H989.597M922.198 751.995L924.318 745.011L925.612 740.752M922.198 751.995H888.499M821.099 751.995L821.521 749.22L822.159 745.011L822.59 742.18L822.806 740.752M821.099 751.995H787.399M821.099 751.995H854.799M787.399 751.995H753.7M686.3 751.995H652.601M686.3 751.995H720M652.601 751.995L652.178 747.823L651.607 742.18L651.463 740.752M652.601 751.995H618.901M551.501 751.995L550.799 749.22L548.656 740.752M551.501 751.995H517.802M551.501 751.995H585.202M517.802 751.995L515.682 745.011L514.388 740.752M517.802 751.995H484.102M416.703 751.995L412.231 742.18L411.582 740.752M416.703 751.995H383.003M416.703 751.995H450.402M383.003 751.995L379.47 745.011L377.313 740.752M383.003 751.995H349.303M281.904 751.995L274.507 740.752M281.904 751.995H248.204M281.904 751.995H315.603M248.204 751.995L240.239 740.752M248.204 751.995H214.504M147.105 751.995L137.432 740.752M147.105 751.995H180.805M147.105 751.995H113.405M113.405 751.995L103.164 740.752M113.405 751.995H79.705M1439.73 664.42H1439.61M1439.61 664.42H1406.36M1439.61 664.42V649.995M1439.61 664.42V669.501M1406.36 664.42L1393.71 678.315M1406.36 664.42L1419.5 649.995M1406.36 664.42H1368.23M1393.71 678.315H1431.14M1393.71 678.315L1381.51 691.706M1393.71 678.315H1356.28M1419.5 649.995L1433.16 635.004M1419.5 649.995H1380.64M1419.5 649.995H1439.61M1368.23 664.42L1356.28 678.315M1368.23 664.42L1380.64 649.995M1368.23 664.42H1330.1M1431.14 678.315L1418.26 691.706M1431.14 678.315H1439.61M1431.14 678.315L1439.61 669.501M1381.51 691.706L1369.74 704.622M1381.51 691.706H1344.76M1381.51 691.706H1418.26M1356.28 678.315L1344.76 691.706M1356.28 678.315H1318.85M1418.26 691.706L1405.84 704.622M1418.26 691.706H1439.61M1439.61 678.315V669.501M1439.61 678.315V691.706M1393.86 717.088H1358.39M1393.86 717.088L1382.29 729.124M1393.86 717.088H1429.32M1393.86 717.088L1405.84 704.622M1358.39 717.088L1347.43 729.124M1358.39 717.088L1369.74 704.622M1358.39 717.088H1322.93M1382.29 729.124H1347.43M1382.29 729.124L1371.1 740.752M1382.29 729.124H1417.14M1429.32 717.088L1417.14 729.124M1429.32 717.088H1439.61M1429.32 717.088L1439.61 706.921M1405.84 704.622H1369.74M1405.84 704.622H1439.61M1347.43 729.124H1312.57M1347.43 729.124L1336.84 740.752M1369.74 704.622H1333.65M1322.93 717.088L1312.57 729.124M1322.93 717.088L1333.65 704.622M1322.93 717.088H1287.46M1371.1 740.752H1336.84M1371.1 740.752H1405.37M1417.14 729.124L1405.37 740.752M1417.14 729.124H1439.61M1312.57 729.124H1277.71M1312.57 729.124L1302.57 740.752M1336.84 740.752H1302.57M1439.98 445.112H1439.61M1439.61 445.112H1409.21M1439.61 445.112V468.146M1439.61 445.112V420.93M1409.21 445.112L1392.89 468.146M1409.21 445.112L1426.34 420.93M1409.21 445.112H1359.98M1392.89 468.146L1377.32 490.118M1392.89 468.146H1344.83M1392.89 468.146H1439.61M1426.34 420.93H1375.89M1426.34 420.93H1439.61M1426.34 420.93L1439.61 402.198M1359.98 445.112L1344.83 468.146M1359.98 445.112L1375.89 420.93M1359.98 445.112H1310.75M1377.32 490.118H1424.28M1377.32 490.118L1362.46 511.094M1377.32 490.118H1330.37M1344.83 468.146L1330.37 490.118M1344.83 468.146H1296.76M1439.61 468.146V469.912M1424.28 490.118L1408.35 511.094M1424.28 490.118H1439.61M1424.28 490.118L1439.61 469.912M1408.35 511.094L1393.13 531.146M1408.35 511.094H1362.46M1408.35 511.094H1439.61M1439.61 490.118V469.912M1439.61 490.118V511.094M1393.13 531.146H1348.26M1393.13 531.146L1378.57 550.325M1393.13 531.146H1438.01M1348.26 531.146L1334.67 550.325M1348.26 531.146L1362.46 511.094M1348.26 531.146H1303.38M1378.57 550.325H1334.67M1378.57 550.325H1422.48M1378.57 550.325L1364.63 568.696M1438.01 531.146L1422.48 550.325M1438.01 531.146H1439.61M1438.01 531.146L1439.61 529.166M1334.67 550.325L1321.66 568.696M1334.67 550.325H1290.76M1362.46 511.094H1316.57M1303.38 531.146L1290.76 550.325M1303.38 531.146L1316.57 511.094M1303.38 531.146H1258.51M1422.48 550.325L1407.61 568.696M1422.48 550.325H1439.61M1364.63 568.696H1321.66M1364.63 568.696H1407.61M1364.63 568.696L1351.27 586.304M1321.66 568.696L1309.18 586.304M1321.66 568.696H1278.68M1290.76 550.325L1278.68 568.696M1290.76 550.325H1246.86M1338.44 603.198H1297.21M1338.44 603.198L1326.13 619.417M1338.44 603.198H1379.67M1338.44 603.198L1351.27 586.304M1297.21 603.198L1285.72 619.417M1297.21 603.198L1309.18 586.304M1297.21 603.198H1255.98M1326.13 619.417H1285.72M1326.13 619.417H1366.54M1326.13 619.417L1314.3 635.004M1379.67 603.198H1420.9M1379.67 603.198L1366.54 619.417M1379.67 603.198L1393.35 586.304M1351.27 586.304H1309.18M1351.27 586.304H1393.35M1285.72 619.417L1274.68 635.004M1285.72 619.417H1245.31M1309.18 586.304H1267.1M1255.98 603.198L1245.31 619.417M1255.98 603.198L1267.1 586.304M1255.98 603.198H1214.75M1366.54 619.417H1406.95M1366.54 619.417L1353.92 635.004M1314.3 635.004H1274.68M1314.3 635.004H1353.92M1314.3 635.004L1302.92 649.995M1274.68 635.004L1264.06 649.995M1274.68 635.004H1235.06M1245.31 619.417L1235.06 635.004M1245.31 619.417H1204.9M1291.97 664.42H1253.84M1291.97 664.42L1281.42 678.315M1291.97 664.42H1330.1M1291.97 664.42L1302.92 649.995M1253.84 664.42L1243.99 678.315M1253.84 664.42L1264.06 649.995M1253.84 664.42H1215.71M1281.42 678.315H1243.99M1281.42 678.315H1318.85M1281.42 678.315L1271.26 691.706M1330.1 664.42L1318.85 678.315M1330.1 664.42L1341.78 649.995M1302.92 649.995H1264.06M1302.92 649.995H1341.78M1243.99 678.315L1234.51 691.706M1243.99 678.315H1206.57M1264.06 649.995H1225.2M1215.71 664.42L1206.57 678.315M1215.71 664.42L1225.2 649.995M1215.71 664.42H1177.58M1318.85 678.315L1308.01 691.706M1271.26 691.706H1234.51M1271.26 691.706H1308.01M1271.26 691.706L1261.45 704.622M1234.51 691.706L1225.36 704.622M1234.51 691.706H1197.76M1206.57 678.315L1197.76 691.706M1206.57 678.315H1169.14M1251.99 717.088H1216.53M1251.99 717.088L1242.86 729.124M1251.99 717.088H1287.46M1251.99 717.088L1261.45 704.622M1216.53 717.088L1208 729.124M1216.53 717.088L1225.36 704.622M1216.53 717.088H1181.06M1242.86 729.124H1208M1242.86 729.124L1234.03 740.752M1242.86 729.124H1277.71M1287.46 717.088L1277.71 729.124M1287.46 717.088L1297.55 704.622M1261.45 704.622H1225.36M1261.45 704.622H1297.55M1208 729.124H1173.14M1208 729.124L1199.76 740.752M1225.36 704.622H1189.26M1181.06 717.088L1173.14 729.124M1181.06 717.088L1189.26 704.622M1181.06 717.088H1145.59M1234.03 740.752H1199.76M1234.03 740.752H1268.3M1277.71 729.124L1268.3 740.752M1173.14 729.124H1138.29M1173.14 729.124L1165.49 740.752M1199.76 740.752H1165.49M1414.39 45.7371L1391.42 91.1282M1414.39 45.7371L1438.99 -2.87042M1414.39 45.7371H1344.95M1414.39 45.7371H1439.61M1391.42 91.1282L1369.92 133.61M1391.42 91.1282H1324.28M1391.42 91.1282H1439.61M1438.99 -2.87042H1367.09L1344.95 45.7342M1438.99 -2.87042H1439.61M1438.99 -2.87042L1439.61 -4.10464M1344.95 45.7371L1324.28 91.1282M1344.95 45.7371H1275.51M1324.28 91.1282L1304.93 133.61H1239.94H1174.95M1324.28 91.1282H1257.14M1439.61 91.1282V45.7342V-2.86759V-4.10464M1439.61 91.1282V125.172M1391.89 210.911H1330.81M1391.89 210.911L1372.26 246.172M1391.89 210.911L1412.73 173.459M1391.89 210.911H1439.61M1330.81 210.911L1312.96 246.172M1330.81 210.911L1349.76 173.459M1330.81 210.911H1269.73M1372.26 246.172H1312.96M1372.26 246.172H1431.56M1372.26 246.172L1353.75 279.432M1412.73 173.459H1349.76M1412.73 173.459L1434.91 133.61M1412.73 173.459H1439.61M1439.61 210.911V173.459M1439.61 210.911V232.905V246.172M1312.96 246.172L1296.13 279.432M1312.96 246.172H1253.67M1349.76 173.459L1369.92 133.612M1349.76 173.459H1286.78M1269.73 210.911L1253.67 246.172M1269.73 210.911L1286.78 173.459M1269.73 210.911H1208.65M1431.56 246.172L1411.36 279.432M1431.56 246.172H1439.61M1431.56 246.172L1439.61 232.902M1353.75 279.432H1296.13M1353.75 279.432H1411.36M1353.75 279.432L1336.25 310.856M1296.13 279.432L1280.23 310.856M1296.13 279.432H1238.52M1253.67 246.172L1238.52 279.432M1253.67 246.172H1194.37M1319.7 340.593H1265.18M1319.7 340.593L1304.01 368.772M1319.7 340.593H1374.22M1319.7 340.593L1336.25 310.856M1265.18 340.593L1250.92 368.772M1265.18 340.593L1280.23 310.856M1265.18 340.593H1210.66M1304.01 368.772H1250.92M1304.01 368.772H1357.11M1304.01 368.772L1289.13 395.515M1374.22 340.593H1428.74M1374.22 340.593L1357.11 368.772M1374.22 340.593L1392.28 310.856M1336.25 310.856H1280.23M1336.25 310.856H1392.28M1250.92 368.772L1237.39 395.515M1250.92 368.772H1197.83M1280.23 310.856H1224.21M1210.66 340.593L1197.83 368.772M1210.66 340.593L1224.21 310.856M1210.66 340.593H1156.15M1357.11 368.772H1410.2M1357.11 368.772L1340.87 395.515M1289.13 395.515H1237.39M1289.13 395.515H1340.87M1289.13 395.515L1274.98 420.93M1237.39 395.515L1224.53 420.93M1237.39 395.515H1185.65M1197.83 368.772L1185.65 395.515M1197.83 368.772H1144.74M1261.52 445.112H1212.29M1261.52 445.112L1248.7 468.146M1261.52 445.112H1310.75M1261.52 445.112L1274.98 420.93M1212.29 445.112L1200.64 468.146M1212.29 445.112L1224.53 420.93M1212.29 445.112H1163.06M1248.7 468.146H1200.64M1248.7 468.146H1296.76M1248.7 468.146L1236.47 490.118M1310.75 445.112L1296.76 468.146M1310.75 445.112L1325.43 420.93M1274.98 420.93H1224.53M1274.98 420.93H1325.43M1200.64 468.146L1189.52 490.118M1200.64 468.146H1152.57M1224.53 420.93H1174.08M1163.06 445.112L1152.57 468.146M1163.06 445.112L1174.08 420.93M1163.06 445.112H1113.83M1296.76 468.146L1283.42 490.118M1236.47 490.118H1189.52M1236.47 490.118H1283.42M1236.47 490.118L1224.79 511.094M1189.52 490.118L1178.9 511.094M1189.52 490.118H1142.57M1152.57 468.146L1142.57 490.118M1152.57 468.146H1104.51M1213.63 531.146H1168.76M1213.63 531.146L1202.95 550.325M1213.63 531.146H1258.51M1213.63 531.146L1224.79 511.094M1168.76 531.146L1159.05 550.325M1168.76 531.146L1178.9 511.094M1168.76 531.146H1123.88M1202.95 550.325H1159.05M1202.95 550.325H1246.86M1202.95 550.325L1192.73 568.696M1258.51 531.146L1246.86 550.325M1258.51 531.146L1270.68 511.094M1224.79 511.094H1178.9M1224.79 511.094H1270.68M1159.05 550.325L1149.75 568.696M1159.05 550.325H1115.14M1178.9 511.094H1133.01M1123.88 531.146L1115.14 550.325M1123.88 531.146L1133.01 511.094M1123.88 531.146H1079M1246.86 550.325L1235.7 568.696M1192.73 568.696H1149.75M1192.73 568.696H1235.7M1192.73 568.696L1182.93 586.304M1149.75 568.696L1140.84 586.304M1149.75 568.696H1106.78M1115.14 550.325L1106.78 568.696M1115.14 550.325H1071.24M1173.52 603.198H1132.3M1173.52 603.198L1164.5 619.417M1173.52 603.198H1214.75M1173.52 603.198L1182.93 586.304M1132.3 603.198L1131.25 605.259L1124.09 619.417M1132.3 603.198L1140.84 586.304M1132.3 603.198H1091.07M1164.5 619.417H1124.09M1164.5 619.417H1204.9M1164.5 619.417L1155.82 635.004M1214.75 603.198L1204.9 619.417M1214.75 603.198L1225.01 586.304M1182.93 586.304H1140.84M1182.93 586.304H1225.01M1124.09 619.417L1116.2 635.004M1124.09 619.417H1083.68M1140.84 586.304H1098.76M1091.07 603.198L1083.68 619.417M1091.07 603.198L1098.76 586.304M1091.07 603.198H1049.84M1204.9 619.417L1195.44 635.004M1155.82 635.004H1116.2M1155.82 635.004H1195.44M1155.82 635.004L1147.48 649.995M1116.2 635.004L1109.55 648.15L1108.61 649.995M1116.2 635.004H1076.58M1083.68 619.417L1076.58 635.004M1083.68 619.417H1043.27M1139.44 664.42H1101.31M1139.44 664.42L1131.71 678.315M1139.44 664.42H1177.58M1139.44 664.42L1147.48 649.995M1101.31 664.42L1094.28 678.315M1101.31 664.42L1104.02 659.073L1108.61 649.995M1101.31 664.42H1063.18M1131.71 678.315H1094.28M1131.71 678.315H1169.14M1131.71 678.315L1124.26 691.706M1177.58 664.42L1170.18 676.608L1169.14 678.315M1177.58 664.42L1186.34 649.995M1147.48 649.995H1108.61M1147.48 649.995H1186.34M1094.28 678.315L1087.51 691.706M1094.28 678.315H1056.85M1108.61 649.995H1069.75M1063.18 664.42L1056.85 678.315M1063.18 664.42L1064.8 660.867L1069.75 649.995M1063.18 664.42H1025.05M1169.14 678.315L1161.01 691.706M1124.26 691.706H1087.51M1124.26 691.706H1161.01M1124.26 691.706L1117.07 704.622M1087.51 691.706L1080.97 704.622M1087.51 691.706H1050.75M1056.85 678.315L1050.75 691.706M1056.85 678.315H1019.43M1110.13 717.088H1074.66M1110.13 717.088L1103.43 729.124M1110.13 717.088H1145.59M1110.13 717.088L1117.07 704.622M1074.66 717.088L1070.07 726.152L1069.32 727.642L1068.57 729.124M1074.66 717.088L1080.97 704.622M1074.66 717.088H1039.2M1103.43 729.124H1068.57M1103.43 729.124L1096.96 740.752M1103.43 729.124H1138.29M1145.59 717.088L1138.29 729.124M1145.59 717.088L1153.16 704.622M1117.07 704.622H1080.97M1117.07 704.622H1153.16M1068.57 729.124H1033.71M1068.57 729.124L1062.69 740.752M1080.97 704.622H1044.87M1039.2 717.088L1033.71 729.124M1039.2 717.088L1044.87 704.622M1039.2 717.088H1003.73M1096.96 740.752H1062.69M1096.96 740.752H1131.22M1138.29 729.124L1131.22 740.752M1033.71 729.124H998.857M1033.71 729.124L1028.42 740.752M1062.69 740.752H1028.42M1389.23 -471.326H1293.63M1389.23 -471.326L1359.13 -386.343M1389.23 -471.326L1422.31 -564.714M1389.23 -471.326L1439.61 -471.329M1293.63 -471.326L1267.82 -386.343M1293.63 -471.326L1321.98 -564.714M1293.63 -471.326H1198.02M1359.13 -386.343H1267.82M1359.13 -386.343L1331.62 -308.674M1359.13 -386.343H1439.61M1422.31 -564.714H1321.98M1422.31 -564.714L1439.61 -613.555M1422.31 -564.714H1439.61M1439.61 -471.329V-564.714M1439.61 -471.329V-386.343M1267.82 -386.343L1244.24 -308.674M1267.82 -386.343H1176.52M1321.98 -564.714L1353.28 -667.814M1321.98 -564.714H1221.65M1198.02 -471.326L1176.52 -386.343M1198.02 -471.326L1221.65 -564.714M1198.02 -471.326H1102.42M1331.62 -308.674H1244.24M1331.62 -308.674H1418.99M1331.62 -308.674L1306.37 -237.417M1439.61 -386.343V-359.618M1244.24 -308.674L1222.61 -237.417M1244.24 -308.674H1156.87M1176.52 -386.343L1156.87 -308.674M1176.52 -386.343H1085.22M1283.13 -171.809H1202.69M1283.13 -171.809L1261.67 -111.202M1283.13 -171.809H1363.58M1283.13 -171.809L1306.37 -237.417M1202.69 -171.809L1184.28 -111.202M1202.69 -171.809L1222.61 -237.417M1202.69 -171.809H1122.24M1261.67 -111.202H1184.28M1261.67 -111.202H1339.05M1261.67 -111.202L1241.77 -55.0484M1363.58 -171.809L1339.05 -111.202M1363.58 -171.809L1390.14 -237.417M1363.58 -171.809H1439.61M1306.37 -237.417H1222.61M1184.28 -111.202L1167.23 -55.0484M1184.28 -111.202H1106.9M1222.61 -237.417H1138.84M1122.24 -171.809L1106.9 -111.202M1122.24 -171.809H1041.79M1339.05 -111.202H1416.43M1339.05 -111.202L1316.31 -55.0484M1241.77 -55.0484H1167.23M1241.77 -55.0484H1316.31M1241.77 -55.0484L1223.29 -2.86759H1151.39H1079.49M1167.23 -55.0484L1151.39 -2.87042L1136.63 45.7371M1167.23 -55.0484H1092.7M1106.9 -111.202L1092.7 -55.0484M1106.9 -111.202H1029.52M1136.63 45.7342H1206.07L1189.99 91.1282M1189.99 91.1282H1122.85M1189.99 91.1282H1257.14M1189.99 91.1282L1174.95 133.61M1275.51 45.7371H1206.07L1223.29 -2.87042H1295.19L1275.51 45.7371ZM1275.51 45.7371L1257.14 91.1282M1136.63 45.7371L1122.85 91.1282M1136.63 45.7371H1067.2M1122.85 91.1282L1109.95 133.61M1122.85 91.1282H1055.71M1067.2 45.7371L1055.71 91.1282M1067.2 45.7371H997.756M1257.14 91.1282L1239.94 133.612L1223.81 173.459M1174.95 133.61L1160.83 173.459M1055.71 91.1282L1044.96 133.61H979.969H914.977M1055.71 91.1282H988.568M1147.57 210.911H1086.48M1147.57 210.911L1135.07 246.172M1147.57 210.911H1208.65M1147.57 210.911L1160.83 173.459M1086.48 210.911L1075.78 246.172M1086.48 210.911L1097.85 173.459M1086.48 210.911H1025.4M1135.07 246.172H1075.78M1135.07 246.172H1194.37M1135.07 246.172L1123.29 279.432M1208.65 210.911L1194.37 246.172M1208.65 210.911L1223.81 173.459M1160.83 173.459H1097.85M1160.83 173.459H1223.81M1075.78 246.172L1065.68 279.432M1075.78 246.172H1016.48M1097.85 173.459L1109.95 133.612M1097.85 173.459H1034.88M1025.4 210.911L1016.48 246.172M1025.4 210.911L1034.88 173.459M1025.4 210.911H964.323M1194.37 246.172L1180.91 279.432M1123.29 279.432H1065.68M1123.29 279.432H1180.91M1123.29 279.432L1112.16 310.856M1065.68 279.432L1056.14 310.856M1065.68 279.432H1008.07M1016.48 246.172L1008.07 279.432M1016.48 246.172H957.185M1101.63 340.593H1047.11M1101.63 340.593L1091.65 368.772M1101.63 340.593H1156.15M1101.63 340.593L1112.16 310.856M1047.11 340.593L1038.55 368.772M1047.11 340.593L1056.14 310.856M1047.11 340.593H992.591M1091.65 368.772H1038.55M1091.65 368.772H1144.74M1091.65 368.772L1082.17 395.515M1156.15 340.593L1144.74 368.772M1156.15 340.593L1168.18 310.856M1112.16 310.856H1056.14M1112.16 310.856H1168.18M1038.55 368.772L1030.43 395.515M1038.55 368.772H985.461M1056.14 310.856H1000.12M992.591 340.593L985.461 368.772M992.591 340.593L1000.12 310.856M992.591 340.593H938.073M1144.74 368.772L1133.91 395.515M1082.17 395.515H1030.43M1082.17 395.515H1133.91M1082.17 395.515L1073.17 420.93M1030.43 395.515L1022.72 420.93M1030.43 395.515H978.695M985.461 368.772L978.695 395.515M985.461 368.772H932.369M1064.6 445.112H1015.38M1064.6 445.112L1056.44 468.146M1064.6 445.112H1113.83M1064.6 445.112L1073.17 420.93M1015.38 445.112L1008.38 468.146M1015.38 445.112L1022.72 420.93M1015.38 445.112H966.146M1056.44 468.146H1008.38M1056.44 468.146H1104.51M1056.44 468.146L1048.66 490.118M1113.83 445.112L1104.51 468.146M1113.83 445.112L1123.62 420.93M1073.17 420.93H1022.72M1073.17 420.93H1123.62M1008.38 468.146L1001.71 490.118M1008.38 468.146H960.318M1022.72 420.93H972.265M966.146 445.112L960.318 468.146M966.146 445.112L972.265 420.93M966.146 445.112H916.917M1104.51 468.146L1095.61 490.118M1048.66 490.118H1001.71M1048.66 490.118H1095.61M1048.66 490.118L1041.23 511.094M1001.71 490.118L995.341 511.094M1001.71 490.118H954.759M960.318 468.146L956.812 481.998L954.759 490.118M960.318 468.146H912.254M1034.13 531.146H989.253M1034.13 531.146L1027.33 550.325M1034.13 531.146H1079M1034.13 531.146L1041.23 511.094M989.253 531.146L983.43 550.325M989.253 531.146L995.341 511.094M989.253 531.146H944.378M1027.33 550.325H983.43M1027.33 550.325H1071.24M1027.33 550.325L1020.83 568.696M1079 531.146L1071.24 550.325M1079 531.146L1087.12 511.094M1041.23 511.094H995.341M1041.23 511.094H1087.12M983.43 550.325L977.852 568.696M983.43 550.325H939.524M995.341 511.094H949.451M944.378 531.146L939.524 550.325M944.378 531.146L945.625 526.217L949.451 511.094M944.378 531.146H899.503M1071.24 550.325L1063.8 568.696M1020.83 568.696H977.852M1020.83 568.696H1063.8M1020.83 568.696L1014.59 586.304M977.852 568.696L975.151 577.594L972.506 586.304M977.852 568.696H934.877M939.524 550.325L934.877 568.696M939.524 550.325H895.62M1008.61 603.198H967.376M1008.61 603.198L1002.86 619.417M1008.61 603.198H1049.84M1008.61 603.198L1014.59 586.304M967.376 603.198L968.007 601.123L972.506 586.304M967.376 603.198L962.452 619.417M967.376 603.198H926.147M1002.86 619.417H962.452M1002.86 619.417H1043.27M1002.86 619.417L997.339 635.004M1049.84 603.198L1043.27 619.417M1049.84 603.198L1056.67 586.304M1014.59 586.304H972.506M1014.59 586.304H1056.67M972.506 586.304H930.421M962.452 619.417L957.719 635.004M962.452 619.417H922.043M926.147 603.198L922.043 619.417M926.147 603.198L930.421 586.304M926.147 603.198H884.918M1043.27 619.417L1036.96 635.004M997.339 635.004H957.719M997.339 635.004H1036.96M997.339 635.004L992.029 649.995M957.719 635.004L953.168 649.995M957.719 635.004H918.1M922.043 619.417L918.1 635.004M922.043 619.417H881.635M986.919 664.42H948.788M986.919 664.42L981.997 678.315M986.919 664.42H1025.05M986.919 664.42L992.029 649.995M948.788 664.42L944.569 678.315M948.788 664.42L950.411 659.073L951.506 655.469L953.168 649.995M948.788 664.42H910.657M981.997 678.315H944.569M981.997 678.315H1019.43M981.997 678.315L977.254 691.706M1025.05 664.42L1019.43 678.315M1025.05 664.42L1030.89 649.995M992.029 649.995H953.168M992.029 649.995H1030.89M944.569 678.315L943.027 683.395L942.01 686.743L940.503 691.706M944.569 678.315H907.141M953.168 649.995H914.307M910.657 664.42L909.765 667.943L907.141 678.315M910.657 664.42L911.105 662.646L911.556 660.867L912.921 655.469L913.382 653.652L914.307 649.995M910.657 664.42H872.526M1019.43 678.315L1014 691.706M977.254 691.706H940.503M977.254 691.706H1014M977.254 691.706L973.807 701.439L972.678 704.622M940.503 691.706L938.525 698.223L936.582 704.622M940.503 691.706H903.752M907.141 678.315L906.71 680.016L906.282 681.711L904.588 688.405L903.752 691.706M907.141 678.315H869.712M968.263 717.088H932.798M968.263 717.088L965.052 726.152L964 729.124M968.263 717.088H1003.73M968.263 717.088L972.118 706.204L972.678 704.622M932.798 717.088L930.044 726.152L929.593 727.642L929.143 729.124M932.798 717.088L934.673 710.911L936.582 704.622M932.798 717.088H897.331M964 729.124H929.143M964 729.124L959.881 740.752M964 729.124H998.857M1003.73 717.088L998.857 729.124M1003.73 717.088L1008.78 704.622M972.678 704.622H936.582M972.678 704.622H1008.78M929.143 729.124H894.286M929.143 729.124L925.612 740.752M936.582 704.622H900.485M897.331 717.088L894.286 729.124M897.331 717.088L900.485 704.622M897.331 717.088H861.865M959.881 740.752H925.612M959.881 740.752H994.149M998.857 729.124L995.311 737.881L994.149 740.752M894.286 729.124H859.429M894.286 729.124L892.07 737.881L891.343 740.752M925.612 740.752H891.343M1006.81 -471.326H911.209M1006.81 -471.326L993.912 -386.343M1006.81 -471.326H1102.42M1006.81 -471.326L1020.99 -564.714M911.209 -471.326L902.608 -386.343M911.209 -471.326L920.66 -564.714M911.209 -471.326H815.604L811.304 -386.343M993.912 -386.343H902.608M993.912 -386.343H1085.22M993.912 -386.343L982.121 -308.674M1102.42 -471.326L1085.22 -386.343M1102.42 -471.326L1121.32 -564.712M1020.99 -564.714H920.66M1020.99 -564.714L1036.64 -667.811M1020.99 -564.714L1121.32 -564.712M902.608 -386.343L894.747 -308.674M902.608 -386.343H811.304M920.66 -564.714L931.095 -667.811M920.66 -564.714L820.33 -564.712M1085.22 -386.343L1069.49 -308.674M982.121 -308.674H894.747M982.121 -308.674H1069.49M982.121 -308.674L971.304 -237.417M894.747 -308.674L887.535 -237.417M894.747 -308.674H807.374M811.304 -386.343L807.374 -308.674M811.304 -386.343H720M961.343 -171.809H880.896M961.343 -171.809L952.142 -111.202M961.343 -171.809H1041.79M961.343 -171.809L971.304 -237.417M880.896 -171.809L874.762 -111.202M880.896 -171.809L887.535 -237.417M880.896 -171.809H800.447M952.142 -111.202H874.762M952.142 -111.202H1029.52M952.142 -111.202L943.617 -55.0484M1041.79 -171.809L1029.52 -111.202M1041.79 -171.809L1055.07 -237.417M971.304 -237.417H887.535M874.762 -111.202L869.078 -55.0484M874.762 -111.202H797.381M887.535 -237.417H803.768M800.447 -171.809L797.381 -111.202M800.447 -171.809H720M1029.52 -111.202L1018.16 -55.0484M943.617 -55.0484H869.078M943.617 -55.0484H1018.16M943.617 -55.0484L935.696 -2.86759H863.797H791.899M869.078 -55.0484L863.797 -2.87042L858.878 45.7371M869.078 -55.0484H794.539M797.381 -111.202L794.539 -55.0484M797.381 -111.202H720M858.878 45.7342H928.317L921.426 91.1282M921.426 91.1282H854.284M921.426 91.1282H988.568M921.426 91.1282L914.977 133.61M997.756 45.7371H928.317L935.696 -2.87042H1007.6L997.756 45.7371ZM997.756 45.7371L988.568 91.1282M858.878 45.7371L854.284 91.1282M858.878 45.7371H789.439M854.284 91.1282L849.984 133.61M854.284 91.1282H787.142M789.439 45.7371L787.142 91.1282M789.439 45.7371H720H650.561L648.101 -2.87042H720V45.7342V91.1282M988.568 91.1282L979.969 133.612L971.903 173.459M914.977 133.61L908.927 173.459M787.142 91.1282L784.992 133.61H720H655.008M787.142 91.1282H720M903.242 210.911H842.162M903.242 210.911L897.889 246.172M903.242 210.911H964.323M903.242 210.911L908.927 173.459M842.162 210.911L838.593 246.172M842.162 210.911L845.952 173.459M842.162 210.911H781.081M897.889 246.172H838.593M897.889 246.172H957.185M897.889 246.172L892.84 279.432M964.323 210.911L957.185 246.172M964.323 210.911L971.903 173.459M908.927 173.459H845.952M908.927 173.459H971.903M838.593 246.172L835.226 279.432M838.593 246.172H779.296M845.952 173.459L849.984 133.612M845.952 173.459H782.976M781.081 210.911L779.296 246.172M781.081 210.911L782.976 173.459M781.081 210.911H720M957.185 246.172L950.453 279.432M892.84 279.432H835.226M892.84 279.432H950.453M892.84 279.432L888.069 310.856M835.226 279.432L832.046 310.856M835.226 279.432H777.613M779.296 246.172L777.613 279.432M779.296 246.172L720 246.17M883.555 340.593H829.036M883.555 340.593L879.277 368.772M883.555 340.593H938.073M883.555 340.593L888.069 310.856M829.036 340.593L826.185 368.772M829.036 340.593L832.046 310.856M829.036 340.593H774.518M879.277 368.772H826.185M879.277 368.772H932.369M879.277 368.772L875.217 395.515M938.073 340.593L932.369 368.772M938.073 340.593L944.093 310.856M888.069 310.856H832.046M888.069 310.856H944.093M826.185 368.772L823.478 395.515M826.185 368.772H773.092M832.046 310.856H776.023M774.518 340.593L773.092 368.772M774.518 340.593L776.023 310.856M774.518 340.593H720M932.369 368.772L926.956 395.515M875.217 395.515H823.478M875.217 395.515H926.956M875.217 395.515L871.358 420.93M823.478 395.515L820.906 420.93M823.478 395.515H771.739M773.092 368.772L771.739 395.515M773.092 368.772L720 368.769M867.688 445.112H818.459M867.688 445.112L864.191 468.146M867.688 445.112H916.917M867.688 445.112L871.358 420.93M818.459 445.112L816.127 468.146M818.459 445.112L820.906 420.93M818.459 445.112H769.229M864.191 468.146H816.127M864.191 468.146H912.254M864.191 468.146L862.921 476.507L860.855 490.118M916.917 445.112L912.254 468.146M916.917 445.112L921.812 420.93M871.358 420.93H820.906M871.358 420.93H921.812M816.127 468.146L813.903 490.118M816.127 468.146H768.063M820.906 420.93H770.453M769.229 445.112L768.063 468.146M769.229 445.112L770.453 420.93M769.229 445.112H720M912.254 468.146L907.807 490.118M860.855 490.118H813.903M860.855 490.118H907.807M860.855 490.118L857.671 511.094M813.903 490.118L811.781 511.094M813.903 490.118H766.952M768.063 468.146L766.952 490.118M768.063 468.146L720 468.143M854.627 531.146H809.751M854.627 531.146L851.715 550.325M854.627 531.146H899.503M854.627 531.146L856.896 516.191L857.671 511.094M809.751 531.146L809.013 538.436L807.81 550.325M809.751 531.146L811.781 511.094M809.751 531.146H764.875M851.715 550.325L851.36 552.665L848.926 568.696M851.715 550.325H807.81M851.715 550.325H895.62M899.503 531.146L895.62 550.325M899.503 531.146L900 528.686L901.509 521.232L903.561 511.094M857.671 511.094H811.781M857.671 511.094H903.561M807.81 550.325L807.103 557.306L806.871 559.609L806.638 561.897L805.951 568.696M807.81 550.325H763.905M811.781 511.094H765.89M764.875 531.146L763.905 550.325M764.875 531.146L765.89 511.094M764.875 531.146H720M848.926 568.696H805.951M848.926 568.696H891.901M848.926 568.696L846.253 586.304M895.62 550.325L891.901 568.696M805.951 568.696L805.273 575.384L805.051 577.594L804.168 586.304M805.951 568.696H762.975M763.905 550.325L763.787 552.665L762.975 568.696M763.905 550.325H720M843.689 603.198H802.459M843.689 603.198L842.445 611.388L842.138 613.409L841.833 615.422L841.528 617.424L841.226 619.417M843.689 603.198H884.918M843.689 603.198L846.253 586.304M802.459 603.198L801.222 615.422L801.019 617.424L800.818 619.417M802.459 603.198L804.168 586.304M802.459 603.198H761.229M841.226 619.417H800.818M841.226 619.417H881.635M841.226 619.417L839.736 629.229L839.443 631.166L838.86 635.004M884.918 603.198L882.443 615.422L881.635 619.417M884.918 603.198L886.184 596.942L887.47 590.594L888.338 586.304M846.253 586.304H804.168M846.253 586.304H888.338M800.818 619.417L799.824 629.229L799.628 631.166L799.434 633.089L799.24 635.004M800.818 619.417H760.408M804.168 586.304H762.085M761.229 603.198L760.408 619.417M761.229 603.198L761.546 596.942L761.867 590.594L762.085 586.304M761.229 603.198H720M881.635 619.417L878.48 635.004M838.86 635.004H799.24M838.86 635.004H878.48M838.86 635.004L836.584 649.995M799.24 635.004L797.723 649.995M799.24 635.004H759.62M760.408 619.417L759.62 635.004M760.408 619.417L720 619.414M834.394 664.42H796.262M834.394 664.42L832.284 678.315M834.394 664.42H872.526M834.394 664.42L834.934 660.867L835.753 655.469L836.584 649.995M796.262 664.42L796.442 662.646L797.537 651.828L797.723 649.995M796.262 664.42L794.856 678.315M796.262 664.42H758.131M832.284 678.315H794.856M832.284 678.315H869.712M832.284 678.315L830.251 691.706M872.526 664.42L870.059 676.608L869.712 678.315M872.526 664.42L872.884 662.646L873.245 660.867L873.607 659.073L875.445 649.995M836.584 649.995H797.723M836.584 649.995H875.445M797.723 649.995H758.861M794.856 678.315L794.342 683.395L794.173 685.074L794.003 686.743L793.501 691.706M794.856 678.315H757.428M758.131 664.42L757.601 674.893L757.515 676.611L757.428 678.317M758.131 664.42L758.861 649.995M758.131 664.42H720M869.712 678.315L867.002 691.706M826.398 717.088H790.933M826.398 717.088L825.022 726.152L824.572 729.124M826.398 717.088H861.865M826.398 717.088L827.101 712.466L827.336 710.911L827.574 709.348L828.291 704.622M790.933 717.088L790.778 718.614L790.471 721.648L790.166 724.659L789.715 729.124M790.933 717.088L791.558 710.911L791.715 709.348L792.034 706.204L792.194 704.622M790.933 717.088H755.466M824.572 729.124H789.715M824.572 729.124L823.024 739.321L822.806 740.752M824.572 729.124H859.429M861.865 717.088L859.429 729.124M861.865 717.088L864.388 704.622M828.291 704.622H792.194M828.291 704.622L828.532 703.036L828.775 701.442L829.017 699.836L829.263 698.225L829.508 696.606L829.755 694.984L830.251 691.709M828.291 704.622H864.388M789.715 729.124L789.565 730.6L789.416 732.067L789.268 733.529L789.121 734.988L788.682 739.321L788.537 740.752M789.715 729.124H754.857M792.194 704.622L792.355 703.036L792.516 701.442L792.679 699.836L792.841 698.225L793.17 694.984L793.335 693.35L793.501 691.709M792.194 704.622L756.097 704.624M822.806 740.752H857.075M859.429 729.124L858.241 734.988L857.364 739.321L857.075 740.752M624.396 -471.326H528.791M624.396 -471.326L628.696 -386.343M624.396 -471.326H720M624.396 -471.326L619.67 -564.714M528.791 -471.326L537.392 -386.343M528.791 -471.326L519.34 -564.714M528.791 -471.326H433.186L446.088 -386.343M628.696 -386.343H537.392M628.696 -386.343H720M628.696 -386.343L632.626 -308.674M619.67 -564.714H519.34M619.67 -564.714L614.452 -667.811M619.67 -564.714L720 -564.712M537.392 -386.343L545.253 -308.674M537.392 -386.343H446.088M519.34 -564.714L508.905 -667.811M519.34 -564.714L419.009 -564.712M720 -386.343V-308.674M720 -386.343V-471.323M632.626 -308.674H545.253M632.626 -308.674H720M632.626 -308.674L636.232 -237.417M545.253 -308.674L552.464 -237.417M545.253 -308.674H457.879M446.088 -386.343L457.879 -308.674M446.088 -386.343H354.784M639.553 -171.809H559.104M639.553 -171.809L642.619 -111.202M639.553 -171.809H720M639.553 -171.809L636.232 -237.417M559.104 -171.809L565.238 -111.202M559.104 -171.809L552.464 -237.417M559.104 -171.809H478.657M642.619 -111.202H565.238M642.619 -111.202H720M642.619 -111.202L645.461 -55.0484M720 -171.809V-111.202M720 -171.809V-237.417M636.232 -237.417H552.464M565.238 -111.202L570.922 -55.0484M565.238 -111.202H487.858M552.464 -237.417H468.696M478.657 -171.809L487.858 -111.202M478.657 -171.809H398.209M720 -111.202V-55.0513M645.461 -55.0484H570.922M645.461 -55.0484H720M645.461 -55.0484L648.101 -2.86759H576.203H504.304M570.922 -55.0484L576.203 -2.87042L581.122 45.7371M570.922 -55.0484H496.383M487.858 -111.202L496.383 -55.0484M487.858 -111.202H410.476M581.122 45.7342H650.561L652.858 91.1282M652.858 91.1282H585.716M652.858 91.1282H720M652.858 91.1282L655.008 133.61M581.122 45.7371L585.716 91.1282M581.122 45.7371H511.683M585.716 91.1282L590.015 133.61M585.716 91.1282H518.574M511.683 45.7371L518.574 91.1282M511.683 45.7371H442.244M720 91.1282V133.612V173.459M655.008 133.61L657.024 173.459M518.574 91.1282L525.023 133.61H460.031M518.574 91.1282H451.432M658.919 210.908H597.838M658.919 210.908L660.704 246.17M658.919 210.908H720M658.919 210.908L657.024 173.456M597.838 210.908L601.407 246.17M597.838 210.908L594.048 173.456M597.838 210.908H536.758M660.704 246.17H601.407M660.704 246.17H720M660.704 246.17L662.387 279.429M720 210.908V246.17M720 210.908V173.459M601.407 246.17L604.774 279.429M601.407 246.17H542.111M720 246.17V279.432M542.111 246.17L547.16 279.432M542.111 246.17L536.758 210.911M542.111 246.17L482.815 246.172M665.482 340.59H610.964M665.482 340.59L666.908 368.769M665.482 340.59H720M665.482 340.59L663.977 310.853M610.964 340.59L613.815 368.769M610.964 340.59L607.954 310.853M610.964 340.59H556.445M666.908 368.769H613.815M666.908 368.769H720M666.908 368.769L668.261 395.512M613.815 368.769L616.522 395.512M613.815 368.769H560.723M720 368.769V395.515M720 368.769V340.593M560.723 368.769L564.783 395.515M560.723 368.769L556.445 340.593M560.723 368.769L507.631 368.772M670.771 445.109H621.541M670.771 445.109L671.937 468.143M670.771 445.109H720M670.771 445.109L669.547 420.928M621.541 445.109L623.873 468.143M621.541 445.109L619.094 420.928M621.541 445.109H572.312M671.937 468.143H623.873M671.937 468.143H720M671.937 468.143L673.048 490.115M669.547 420.928H619.094M669.547 420.928L669.39 417.821L668.261 395.515M669.547 420.928L720 420.93M623.873 468.143L626.097 490.115M623.873 468.143H575.809M619.094 420.928L616.522 395.515M619.094 420.928L568.641 420.93M720 468.143V490.118M720 468.143V445.112M673.048 490.115H626.097M673.048 490.115L720 490.118M673.048 490.115L674.11 511.091M626.097 490.115L628.219 511.091M626.097 490.115L579.145 490.118M575.809 468.143L576.658 473.735L579.145 490.118M575.809 468.143L572.312 445.112M575.809 468.143L527.746 468.146M675.125 531.143H630.249M675.125 531.143L676.095 550.323M675.125 531.143H720M675.125 531.143L674.11 511.091M630.249 531.143L631.952 547.969L632.19 550.323M630.249 531.143L628.219 511.091M630.249 531.143H585.373M676.095 550.323L676.213 552.662L677.025 568.693M676.095 550.323H632.19M676.095 550.323H720M674.11 511.091H628.219M674.11 511.091L720 511.094M632.19 550.323L632.897 557.303L633.129 559.606L633.362 561.895L634.049 568.693M632.19 550.323H588.285M628.219 511.091L582.329 511.094M678.771 603.195H637.541M678.771 603.195L679.591 619.414M678.771 603.195H720M678.771 603.195L678.454 596.94L678.347 594.834L678.241 592.717L678.025 588.452L677.915 586.301M637.541 603.195L638.778 615.419L639.183 619.414M637.541 603.195L635.832 586.301M637.541 603.195H596.311M679.591 619.414H639.183M679.591 619.414H720M679.591 619.414L680.38 635.001M639.183 619.414L640.175 629.226L640.372 631.164L640.566 633.087L640.76 635.001M639.183 619.414H598.774M720 619.414V635.004M720 619.414V603.198M680.38 635.001H640.76M680.38 635.001L720 635.004M680.38 635.001L681.139 649.995M640.76 635.001L642.277 649.995M640.76 635.001L601.14 635.004M598.774 619.414L598.472 617.424L598.167 615.422L597.862 613.409L596.311 603.198M598.774 619.414L599.969 627.287L600.264 629.229L600.557 631.166L601.14 635.004M598.774 619.414L558.365 619.417M681.869 664.418H643.738M681.869 664.418L682.572 678.312M681.869 664.418H720M681.869 664.418L681.139 649.992M643.738 664.418L643.558 662.644L642.463 651.825L642.277 649.992M643.738 664.418L645.144 678.312M643.738 664.418H605.606M682.572 678.312H645.144M682.572 678.312H720M682.572 678.312L683.249 691.703M645.144 678.312L645.658 683.392L645.827 685.071L645.997 686.741L646.499 691.703M645.144 678.312H607.716M684.533 717.085H649.067M684.533 717.085L685.143 729.121M684.533 717.085H720M684.533 717.085L683.903 704.619M649.067 717.085L649.222 718.611L649.53 721.645L649.682 723.155L649.985 726.149L650.135 727.639L650.286 729.121M649.067 717.085L648.442 710.908L648.285 709.345L647.966 706.202L647.806 704.619M649.067 717.085H613.601M685.143 729.121L685.217 730.597L685.292 732.064L685.366 733.526L685.731 740.749M685.143 729.121H650.286M685.143 729.121H720M650.286 729.121H615.428M650.286 729.121L650.584 732.064L650.732 733.526L650.879 734.985L651.317 739.318L651.463 740.749M613.601 717.085L614.978 726.152L615.428 729.121M613.601 717.085L612.426 709.348L611.709 704.622M613.601 717.085L578.135 717.088M615.428 729.121L580.571 729.124M615.428 729.121L616.758 737.881L617.194 740.752M241.977 -471.326H146.373M241.977 -471.326L263.48 -386.343M241.977 -471.326H337.581M241.977 -471.326L218.348 -564.714M146.373 -471.326L172.176 -386.343M146.373 -471.326L118.019 -564.714M146.373 -471.326H50.768M263.48 -386.343H172.176M263.48 -386.343H354.784M263.48 -386.343L283.131 -308.674M218.348 -564.714H118.019M218.348 -564.714L192.263 -667.814M218.348 -564.714H318.679M172.176 -386.343L195.758 -308.674M172.176 -386.343H80.872M118.019 -564.714L86.716 -667.814M118.019 -564.714H17.688M50.768 -471.326L80.872 -386.343M50.768 -471.326L17.688 -564.714M50.768 -471.326H0.388M354.784 -386.343L370.505 -308.674M354.784 -386.343L337.581 -471.323M283.131 -308.674H195.758M283.131 -308.674H370.505M283.131 -308.674L301.161 -237.417M195.758 -308.674L217.393 -237.417M195.758 -308.674H108.384M80.872 -386.343L108.384 -308.674M80.872 -386.343H0.387M317.76 -171.809H237.312M317.76 -171.809L333.095 -111.202M317.76 -171.809H398.208M317.76 -171.809L301.16 -237.417M237.312 -171.809L255.714 -111.202M237.312 -171.809L217.392 -237.417M237.312 -171.809H156.865M333.095 -111.202H255.714M333.095 -111.202H410.476M333.095 -111.202L347.303 -55.0484M255.714 -111.202L272.765 -55.0484M255.714 -111.202H178.334M156.865 -171.809L178.334 -111.202M156.865 -171.809L133.625 -237.417M156.865 -171.809H76.418M410.476 -111.202L421.844 -55.0484M410.476 -111.202L398.209 -171.809M347.303 -55.0484H272.765M347.303 -55.0484H421.844M347.303 -55.0484L360.506 -2.86759M272.765 -55.0484L288.607 -2.87042L303.365 45.7342H372.804M272.765 -55.0484H198.226M178.334 -111.202L198.226 -55.0484M178.334 -111.202H100.953M372.804 45.7342L384.29 91.1282M372.804 45.7342H442.244M372.804 45.7342L360.506 -2.87042M384.29 91.1282H317.147M384.29 91.1282H451.432M384.29 91.1282L395.039 133.61M317.147 91.1282L303.365 45.7371H233.926M317.147 91.1282L330.046 133.61M317.147 91.1282H250.005M451.432 91.1282L460.031 133.612L468.097 173.459M451.432 91.1282L442.244 45.7371M250.005 91.1282L265.054 133.61M250.005 91.1282L233.926 45.7342L216.708 -2.86759M250.005 91.1282H182.862M414.596 210.908H353.516M414.596 210.908L423.518 246.17M414.596 210.908H475.677M414.596 210.908L405.121 173.456L395.039 133.607H460.031M353.516 210.908L364.222 246.17M353.516 210.908L342.145 173.459M423.518 246.17H364.222M423.518 246.17L482.815 246.172M423.518 246.17L431.934 279.432H374.321M364.222 246.17L374.321 279.432M364.222 246.17L304.926 246.172M342.145 173.459L330.046 133.612M342.145 173.459H279.169M342.145 173.459H405.121H468.097M353.516 210.911H292.435M292.435 210.911L279.169 173.459M292.435 210.911H231.355M482.815 246.172L489.547 279.432M482.815 246.172L475.677 210.911M374.321 279.432L383.861 310.856M374.321 279.432H316.707M304.926 246.172L316.707 279.432M304.926 246.172L292.435 210.908M304.926 246.172H245.629M447.409 340.593H392.89M447.409 340.593L454.539 368.772M447.409 340.593H501.927M447.409 340.593L439.885 310.856M392.89 340.593L401.446 368.772M392.89 340.593L383.861 310.856M392.89 340.593H338.371M454.539 368.772H401.446M454.539 368.772H507.631M454.539 368.772L461.305 395.515M501.927 340.593H556.445M501.927 340.593L503.382 347.776L507.631 368.772M501.927 340.593L495.907 310.856M439.885 310.856H383.861M439.885 310.856H495.907M401.446 368.772L409.566 395.515M401.446 368.772H348.354M383.861 310.856H327.838M338.371 340.593L348.354 368.772M338.371 340.593L327.838 310.856M338.371 340.593H283.853M507.631 368.772L513.044 395.515M461.305 395.515H409.566M461.305 395.515H513.044M461.305 395.515L467.735 420.93M409.566 395.515L417.282 420.93M409.566 395.515H357.827M348.354 368.772L357.827 395.515M348.354 368.772H295.261M473.854 445.112H424.625M473.854 445.112L479.682 468.146M473.854 445.112H523.083M473.854 445.112L467.735 420.93M424.625 445.112L431.619 468.146M424.625 445.112L417.282 420.93M424.625 445.112H375.396M479.682 468.146H431.619M479.682 468.146H527.746M479.682 468.146L485.241 490.118M523.083 445.112H572.312M523.083 445.112L527.746 468.146M523.083 445.112L518.188 420.93M467.735 420.93H417.282M467.735 420.93H518.188M431.619 468.146L438.29 490.118M431.619 468.146H383.556M417.282 420.93H366.83M375.396 445.112L383.556 468.146M375.396 445.112L366.83 420.93M375.396 445.112H326.166M527.746 468.146L532.193 490.118M485.241 490.118H438.29M485.241 490.118H532.193M485.241 490.118L490.549 511.094M438.29 490.118L444.659 511.094M438.29 490.118H391.338M383.556 468.146L391.338 490.118M383.556 468.146H335.492M495.622 531.146L495 528.686L494.374 526.217L490.549 511.094M495.622 531.146H450.746M495.622 531.146L500.475 550.325M495.622 531.146H540.497M490.549 511.094H444.659M490.549 511.094H536.439M450.746 531.146L456.57 550.325M450.746 531.146L444.659 511.094M450.746 531.146H405.87M500.475 550.325H456.57M500.475 550.325H544.38M500.475 550.325L505.123 568.696M540.497 531.146H585.373M540.497 531.146L544.38 550.325M540.497 531.146L538.491 521.232L536.439 511.094M456.57 550.325L462.148 568.696M456.57 550.325H412.665M444.659 511.094H398.769M405.87 531.146L412.665 550.325M405.87 531.146L398.769 511.094M405.87 531.146H360.995M544.38 550.325H588.285M544.38 550.325L548.099 568.696M505.123 568.696H462.148M505.123 568.696H548.099M505.123 568.696L506.255 573.166L509.579 586.304M462.148 568.696L464.179 575.384L464.849 577.594L467.494 586.304M462.148 568.696H419.173M412.665 550.325L419.173 568.696M412.665 550.325H368.76M513.853 603.198H472.623M513.853 603.198L517.957 619.417M513.853 603.198H555.082M513.853 603.198L509.579 586.304M472.623 603.198L475.725 613.409L477.548 619.417M472.623 603.198L467.494 586.304M472.623 603.198H431.393M517.957 619.417H477.548M517.957 619.417H558.365M517.957 619.417L521.415 633.089L521.9 635.004M555.082 603.198H596.311M555.082 603.198L557.556 615.422L558.365 619.417M555.082 603.198L553.816 596.942L551.662 586.304M509.579 586.304H467.494M509.579 586.304H551.662M477.548 619.417L482.28 635.004M477.548 619.417H437.139M467.494 586.304H425.409M431.393 603.198L437.139 619.417M431.393 603.198L425.409 586.304M431.393 603.198H390.164M558.365 619.417L561.52 635.004M521.9 635.004H482.28M521.9 635.004H561.52M521.9 635.004L525.693 649.995M482.28 635.004L486.832 649.995M482.28 635.004H442.661M437.139 619.417L440.616 629.229L441.3 631.166L442.661 635.004M437.139 619.417H396.731M529.343 664.42H491.212M529.343 664.42L530.234 667.943L532.859 678.315M529.343 664.42H567.474M529.343 664.42L528.444 660.867L526.618 653.652L525.693 649.995M491.212 664.42L495.431 678.315M491.212 664.42L489.589 659.073L488.494 655.469L486.832 649.995M491.212 664.42H453.081M532.859 678.315H495.431M532.859 678.315H570.288M532.859 678.315L535.412 688.405L536.248 691.706M567.474 664.42H605.606M567.474 664.42L569.941 676.608L570.288 678.315M567.474 664.42L567.116 662.646L566.755 660.867L566.393 659.073L564.555 649.995M525.693 649.995H486.832M525.693 649.995H564.555M495.431 678.315L496.973 683.395L497.99 686.743L499.497 691.706M495.431 678.315H458.003M486.832 649.995H447.971M453.081 664.42L458.003 678.315M453.081 664.42L449.91 655.469L449.266 653.652L447.971 649.995M453.081 664.42H414.949M570.288 678.315H607.716M570.288 678.315L572.998 691.706M536.248 691.706H499.497M536.248 691.706H572.998M536.248 691.706L539.515 704.622M499.497 691.706L501.476 698.223L501.965 699.834L503.419 704.622M499.497 691.706H462.746M458.003 678.315L462.746 691.706M458.003 678.315H420.574M542.669 717.088H507.202M542.669 717.088L544.585 724.659L545.714 729.124M542.669 717.088H578.135M542.669 717.088L539.515 704.622M507.202 717.088L509.956 726.152L510.407 727.642L510.857 729.124M507.202 717.088L505.327 710.911L503.418 704.622M507.202 717.088H471.737M545.714 729.124H510.857M545.714 729.124L547.198 734.988L547.93 737.881L548.294 739.321L548.656 740.752M545.714 729.124H580.571M578.135 717.088L579.97 726.152L580.571 729.124M578.135 717.088L575.612 704.622M539.515 704.622H503.419M539.515 704.622H575.612M510.857 729.124H476M510.857 729.124L514.388 740.752M548.656 740.752H514.388M548.656 740.752H582.925M580.571 729.124L581.759 734.988L582.636 739.321L582.925 740.752M476 729.124H441.143M476 729.124L480.119 740.752M514.388 740.752H480.119M23.572 -111.202H100.953M23.572 -111.202L49.147 -55.0484M23.572 -111.202H0.387M23.572 -111.202L0.387 -162.109M100.953 -111.202L123.686 -55.0484M100.953 -111.202L76.418 -171.809M49.147 -55.0484L72.912 -2.86759H144.81M49.147 -55.0484H123.686M49.147 -55.0484H0.387M0.387 -111.202V-55.0484M0.387 -111.202V-162.109M0.387 -162.109V-171.809V-237.417M95.048 45.7342H25.609L1.012 -2.87042H72.911L95.048 45.7342ZM95.048 45.7342L115.72 91.1254M95.048 45.7342H164.487M115.72 91.1254L48.579 91.1282M115.72 91.1254L182.862 91.1282M115.72 91.1254L135.07 133.61M164.487 45.7342L182.862 91.131M164.487 45.7342L144.809 -2.87042M48.579 91.1282L25.609 45.7371H0.387M48.579 91.1282L70.078 133.61M48.579 91.1282H0.388M182.862 91.1282L200.062 133.612M186.332 246.17L170.273 210.908H109.192L90.242 173.459M231.355 210.908H170.274L153.217 173.459M231.355 210.908L245.629 246.172M231.355 210.908L216.193 173.459M153.217 173.459H90.242M153.217 173.459L135.07 133.612M153.217 173.459H216.193M127.036 246.172L109.193 210.911H48.112M127.036 246.172H186.333M127.036 246.172L143.868 279.432M127.036 246.172H67.74M90.242 173.459L70.077 133.612M90.242 173.459H27.266M48.112 210.911L27.266 173.459M48.112 210.911H0.387M186.333 246.172H245.629M186.333 246.172L201.481 279.432M245.629 246.172L259.094 279.432M201.481 279.432H143.868M201.481 279.432H259.094M201.481 279.432L215.792 310.856M143.868 279.432L159.769 310.856M143.868 279.432H86.254M67.74 246.172L86.254 279.432M67.74 246.172L48.112 210.908M67.74 246.172H8.444M229.335 340.593H174.817M229.335 340.593L242.169 368.772M229.335 340.593H283.853M229.335 340.593L215.792 310.856M174.817 340.593L189.077 368.772M174.817 340.593L159.769 310.856M174.817 340.593H120.298M242.169 368.772H189.077M242.169 368.772H295.261M242.169 368.772L254.349 395.515M283.853 340.593L295.261 368.772M283.853 340.593L271.816 310.856M215.792 310.856H159.769M215.792 310.856H271.816M189.077 368.772L202.611 395.515M189.077 368.772H135.985M159.769 310.856H103.746M120.298 340.593L135.985 368.772M120.298 340.593L103.746 310.856M120.298 340.593H65.78M295.261 368.772L306.089 395.515M254.349 395.515H202.611M254.349 395.515H306.089M254.349 395.515L265.924 420.93M202.611 395.515L215.471 420.93M202.611 395.515H150.871M135.985 368.772L150.871 395.515M135.985 368.772H82.893M276.937 445.112H227.708M276.937 445.112L287.428 468.146M276.937 445.112H326.166M276.937 445.112L265.924 420.93M227.708 445.112L239.365 468.146M227.708 445.112L215.471 420.93M227.708 445.112H178.479M287.428 468.146H239.365M287.428 468.146H335.492M287.428 468.146L297.435 490.118M326.166 445.112L335.492 468.146M326.166 445.112L316.377 420.93M265.924 420.93H215.471M265.924 420.93H316.377M239.365 468.146L250.483 490.118M239.365 468.146H191.301M215.471 420.93H165.018M178.479 445.112L191.301 468.146M178.479 445.112L165.018 420.93M178.479 445.112H129.249M335.492 468.146L344.386 490.118M297.435 490.118H250.483M297.435 490.118H344.386M297.435 490.118L306.988 511.094M250.483 490.118L261.098 511.094M250.483 490.118H203.531M191.301 468.146L203.531 490.118M191.301 468.146H143.238M316.119 531.146H271.244M316.119 531.146L324.856 550.325M316.119 531.146H360.995M316.119 531.146L306.988 511.094M271.244 531.146L280.951 550.325M271.244 531.146L261.098 511.094M271.244 531.146H226.368M324.856 550.325H280.951M324.856 550.325H368.76M324.856 550.325L333.222 568.696M360.995 531.146L368.76 550.325M360.995 531.146L352.878 511.094M306.988 511.094H261.098M306.988 511.094H352.878M280.951 550.325L290.247 568.696M280.951 550.325H237.046M261.098 511.094H215.208M226.368 531.146L237.046 550.325M226.368 531.146L215.208 511.094M226.368 531.146H181.492M368.76 550.325L376.197 568.696M333.222 568.696H290.247M333.222 568.696H376.197M333.222 568.696L341.241 586.304M290.247 568.696L299.156 586.304M290.247 568.696H247.271M237.046 550.325L247.271 568.696M237.046 550.325H193.141M348.935 603.198H307.706M348.935 603.198L356.322 619.417M348.935 603.198H390.164M348.935 603.198L341.241 586.304M307.706 603.198L315.913 619.417M307.706 603.198L299.156 586.304M307.706 603.198H266.475M356.322 619.417H315.913M356.322 619.417H396.731M356.322 619.417L363.421 635.004M390.164 603.198L396.731 619.417M390.164 603.198L383.326 586.304M341.241 586.304H299.156M341.241 586.304H383.326M315.913 619.417L323.801 635.004M315.913 619.417H275.504M299.156 586.304H257.073M266.475 603.198L275.504 619.417M266.475 603.198L257.073 586.304M266.475 603.198H225.246M396.731 619.417L403.041 635.004M363.421 635.004H323.801M363.421 635.004H403.041M363.421 635.004L370.247 649.995M323.801 635.004L330.454 648.15L331.386 649.995M323.801 635.004H284.181M275.504 619.417L284.181 635.004M275.504 619.417H235.096M376.818 664.42H338.687M376.818 664.42L383.146 678.315M376.818 664.42H414.949M376.818 664.42L375.198 660.867L374.384 659.073L370.247 649.995M338.687 664.42L345.718 678.315M338.687 664.42L331.386 649.995M338.687 664.42H300.556M383.146 678.315H345.718M383.146 678.315H420.574M383.146 678.315L389.245 691.706M414.949 664.42L420.574 678.315M414.949 664.42L409.109 649.995M370.247 649.995H331.386M370.247 649.995H409.109M345.718 678.315L352.495 691.706M345.718 678.315H308.29M331.386 649.995H292.525M300.556 664.42L308.29 678.315M300.556 664.42L292.525 649.995M300.556 664.42H262.424M420.574 678.315L425.996 691.706M389.245 691.706H352.495M389.245 691.706H425.996M389.245 691.706L395.127 704.622M352.495 691.706L359.03 704.622M352.495 691.706H315.744M308.29 678.315L315.744 691.706M308.29 678.315H270.862M400.804 717.088H365.338M400.804 717.088L406.286 729.124M400.804 717.088H436.27M400.804 717.088L395.127 704.622M365.338 717.088L369.926 726.152L370.678 727.642L371.429 729.124M365.338 717.088L359.03 704.622M365.338 717.088H329.872M406.286 729.124H371.429M406.286 729.124L410.929 739.321L411.582 740.752M406.286 729.124H441.143M436.27 717.088H471.738M436.27 717.088L441.143 729.124M436.27 717.088L431.225 704.622M395.127 704.622H359.03M395.127 704.622H431.225M371.429 729.124H336.571M371.429 729.124L377.313 740.752M359.03 704.622H322.934M329.872 717.088L336.571 729.124M329.872 717.088L322.934 704.622M329.872 717.088H294.405M411.582 740.752H377.313M411.582 740.752H445.851M441.143 729.124L444.689 737.881L445.851 740.752M336.571 729.124H301.714M336.571 729.124L343.044 740.752M377.313 740.752H343.044M11.262 340.593L29.8 368.772M11.262 340.593H65.78M11.262 340.593L0.387 324.061M11.262 340.593H0.387M29.8 368.772H82.893M29.8 368.772L47.393 395.515M29.8 368.772H0.387M65.78 340.593L82.893 368.772M65.78 340.593L47.723 310.856M0.387 324.061V340.593M0.387 324.061V310.856M0.387 340.593V368.772M82.893 368.772L99.132 395.515M47.393 395.515L64.112 420.93M47.393 395.515H99.132M47.393 395.515H0.387M0.387 368.772V395.515M80.02 445.112H30.79M80.02 445.112L95.175 468.146M80.02 445.112H129.249M80.02 445.112L64.112 420.93M30.79 445.112L47.11 468.146M30.79 445.112L13.659 420.93M30.79 445.112H0.387M95.175 468.146H47.11M95.175 468.146H143.237M95.175 468.146L109.627 490.118M129.249 445.112L143.238 468.146M129.249 445.112L114.565 420.93M64.112 420.93H13.659M64.112 420.93H114.565M47.11 468.146L62.675 490.118M47.11 468.146H0.387M13.659 420.93L0.387 402.198M13.659 420.93H0.387M0.387 445.112H0.022M0.387 445.112V468.146M0.387 445.112V420.93M109.627 490.118H62.675M109.627 490.118H156.579M109.627 490.118L123.427 511.094M62.675 490.118L77.537 511.094M62.675 490.118H15.724M0.387 468.146V469.912M136.617 531.146H91.741M136.617 531.146L149.236 550.325M136.617 531.146H181.492M136.617 531.146L123.427 511.094M91.741 531.146L105.331 550.325M91.741 531.146L77.537 511.094M91.741 531.146H46.865M149.236 550.325H105.331M149.236 550.325H193.141M149.236 550.325L161.321 568.696M181.492 531.146L193.141 550.325M181.492 531.146L169.317 511.094M123.427 511.094H77.537M123.427 511.094H169.317M105.331 550.325L118.345 568.696M105.331 550.325H61.426M77.537 511.094H31.647M46.865 531.146L61.426 550.325M46.865 531.146L31.647 511.094M46.865 531.146H1.99M193.141 550.325L204.296 568.696M161.321 568.696H118.345M161.321 568.696H204.296M161.321 568.696L172.904 586.304M118.345 568.696L130.82 586.304M118.345 568.696H75.37M61.426 550.325L75.37 568.696M61.426 550.325H17.52M184.017 603.198H142.788M184.017 603.198L194.687 619.417M184.017 603.198H225.246M184.017 603.198L172.904 586.304M142.788 603.198L154.278 619.417M142.788 603.198L130.82 586.304M142.788 603.198H101.557M194.687 619.417H154.278M194.687 619.417H235.096M194.687 619.417L204.941 635.004M225.246 603.198L235.096 619.417M225.246 603.198L214.989 586.304M172.904 586.304H130.82M172.904 586.304H214.989M154.278 619.417L165.321 635.004M154.278 619.417H113.87M130.82 586.304H88.735M101.557 603.198L113.87 619.417M101.557 603.198L88.735 586.304M101.557 603.198H60.329M235.096 619.417L244.561 635.004M204.941 635.004H165.321M204.941 635.004H244.561M204.941 635.004L214.802 649.995M165.321 635.004L175.941 649.995M165.321 635.004H125.701M113.87 619.417L125.701 635.004M113.87 619.417H73.46H33.053L19.099 603.198M224.293 664.42H186.161M224.293 664.42L233.433 678.315M224.293 664.42H262.424M224.293 664.42L214.802 649.995M186.161 664.42L196.005 678.315M186.161 664.42L175.941 649.995M186.161 664.42H148.03M233.433 678.315H196.005M233.433 678.315H270.862M233.433 678.315L242.243 691.706M262.424 664.42L269.824 676.608L270.862 678.315M262.424 664.42L253.663 649.995M214.802 649.995H175.941M214.802 649.995H253.663M196.005 678.315L205.493 691.706M196.005 678.315H158.577M175.941 649.995H137.079M148.03 664.42L158.577 678.315M148.03 664.42L137.079 649.995M148.03 664.42H109.899M270.862 678.315L278.994 691.706M242.243 691.706H205.493M242.243 691.706H278.994M242.243 691.706L250.74 704.622M205.493 691.706L214.642 704.622M205.493 691.706H168.742M158.577 678.315L168.742 691.706M158.577 678.315H121.149M258.939 717.088H223.473M258.939 717.088L266.857 729.124M258.939 717.088H294.405M258.939 717.088L250.74 704.622M223.473 717.088L232 729.124M223.473 717.088L214.642 704.622M223.473 717.088H188.006M266.857 729.124H232M266.857 729.124L274.507 740.752M266.857 729.124H301.714M294.405 717.088L301.714 729.124M294.405 717.088L286.837 704.622M250.74 704.622H214.642M250.74 704.622H286.837M232 729.124H197.142M232 729.124L240.239 740.752M214.642 704.622H178.546M188.006 717.088L197.142 729.124M188.006 717.088L178.546 704.622M188.006 717.088H152.541M274.507 740.752H240.239M274.507 740.752H308.776M301.714 729.124L308.776 740.752M197.142 729.124H162.285M197.142 729.124L205.97 740.752M240.239 740.752H205.97M19.099 603.198H60.329M19.099 603.198L4.566 586.304M19.099 603.198H0.387M60.329 603.198L73.462 619.417L86.081 635.004M60.329 603.198L46.651 586.304M4.566 586.304H46.651M4.566 586.304H0.387M4.566 586.304L0.387 581.448M0.387 603.198V619.417M0.387 603.198V586.304M46.46 635.004L33.052 619.417H0.387M46.46 635.004H6.841M46.46 635.004H86.081M46.46 635.004L59.357 649.995M0.387 619.417V627.919M71.767 664.42H33.637M71.767 664.42L83.721 678.315M71.767 664.42H109.899M71.767 664.42L59.357 649.995M33.637 664.42L46.293 678.315M33.637 664.42L20.496 649.995M33.637 664.42H0.387M83.721 678.315H46.293M83.721 678.315H121.149M83.721 678.315L95.241 691.706M109.899 664.42L121.149 678.315M109.899 664.42L98.218 649.995M59.357 649.995H20.496M59.357 649.995H98.218M46.293 678.315L58.491 691.706M46.293 678.315H8.865M20.496 649.995L6.841 635.004M20.496 649.995H0.387M0.387 664.42H0.271M0.387 664.42V669.501M0.387 664.42V649.995M121.149 678.315L131.992 691.706M95.241 691.706H58.491M95.241 691.706H131.992M95.241 691.706L106.352 704.622M58.491 691.706L70.255 704.622M58.491 691.706H21.74M8.865 678.315L21.74 691.706M8.865 678.315L0.387 669.501M8.865 678.315H0.387M117.074 717.088H81.608M117.074 717.088L127.428 729.124M117.074 717.088H152.541M117.074 717.088L106.352 704.622M81.608 717.088L92.571 729.124M81.608 717.088L70.255 704.622M81.608 717.088H46.14M127.428 729.124H92.571M127.428 729.124L137.432 740.752M127.428 729.124H162.285M152.541 717.088L162.285 729.124M152.541 717.088L142.449 704.622M106.352 704.622H70.255M106.352 704.622H142.449M92.571 729.124H57.714M92.571 729.124L103.164 740.752M70.255 704.622H34.158M137.432 740.752H103.164M137.432 740.752H171.701M162.285 729.124L171.701 740.752M57.714 729.124L46.142 717.088M57.714 729.124H22.857M57.714 729.124L68.895 740.752M103.164 740.752H68.895M34.158 704.622L46.142 717.088M34.158 704.622L21.74 691.706M34.158 704.622H0.388M46.142 717.088H10.676M10.676 717.088L22.857 729.124M10.676 717.088L0.387 706.921M10.676 717.088H0.387M22.857 729.124L34.627 740.752M22.857 729.124H0.387M68.895 740.752H34.627M68.895 740.752L79.705 751.995M21.74 691.706H0.387M0.387 706.921V717.088M0.387 706.921V704.622V691.706M0.387 717.088V729.124M34.627 740.752L46.006 751.995M34.627 740.752H0.388M0.387 729.124V740.752M79.705 751.995H46.006M46.006 751.995H12.307M0.387 669.501V678.315M0.387 678.315V691.706M131.992 691.706L142.449 704.622M131.992 691.706H168.742M142.449 704.622H178.546M6.841 635.004L0.387 627.919M6.841 635.004H0.387M0.387 649.995V635.004M0.387 627.919V635.004M86.081 635.004L98.218 649.995M86.081 635.004H125.701M98.218 649.995H137.079M178.546 704.622L168.742 691.706M205.97 740.752H171.701M205.97 740.752L214.504 751.995M171.701 740.752L180.805 751.995M214.504 751.995H180.805M278.994 691.706L286.837 704.622M278.994 691.706H315.744M286.837 704.622H322.934M137.079 649.995L125.701 635.004M244.561 635.004L253.663 649.995M244.561 635.004H284.181M253.663 649.995H292.525M88.735 586.304L75.37 568.696M88.735 586.304H46.651M46.651 586.304L32.393 568.696M75.37 568.696H32.393M32.393 568.696L17.52 550.325M32.393 568.696H0.388M0.387 586.304V581.448M0.387 581.448V568.696M17.52 550.325L1.991 531.146M17.52 550.325H0.387M204.296 568.696L214.989 586.304M204.296 568.696H247.271M214.989 586.304H257.073M31.647 511.094L15.724 490.118M31.647 511.094H0.387M1.99 531.146L0.387 529.166M1.99 531.146H0.387M0.387 550.325V568.696M0.387 550.325V531.146M0.163 568.696H0.387M0.387 529.166L0 528.686M0.387 529.166V531.146M0.387 529.166V511.094M15.724 490.118H0.387M15.724 490.118L0.387 469.912M0.387 511.094V490.118M0.387 490.118V469.912M156.579 490.118L169.317 511.094M156.579 490.118H203.531M156.579 490.118L143.238 468.146M169.317 511.094H215.208M0.387 402.198L0.241 401.989M0.387 402.198V420.93M0.387 402.198V395.515M114.565 420.93H165.018M114.565 420.93L99.132 395.515M322.934 704.622L315.744 691.706M343.044 740.752H308.776M343.044 740.752L349.303 751.995M308.776 740.752L309.642 742.18L311.364 745.011L315.603 751.995M349.303 751.995H315.603M425.996 691.706L431.225 704.622M425.996 691.706H462.746M431.225 704.622H467.322M292.525 649.995L284.181 635.004M403.041 635.004L409.109 649.995M403.041 635.004H442.661M409.109 649.995H447.971M257.073 586.304L247.271 568.696M376.197 568.696L383.326 586.304M376.197 568.696H419.173M383.326 586.304H425.409M215.208 511.094L203.531 490.118M344.386 490.118L352.878 511.094M344.386 490.118H391.338M352.878 511.094H398.769M165.018 420.93L150.871 395.515M150.871 395.515H99.132M306.089 395.515L316.377 420.93M306.089 395.515H357.827M316.377 420.93H366.83M103.746 310.856L86.254 279.432M103.746 310.856H47.723M47.723 310.856L28.64 279.432H0.387M47.723 310.856H0.387M86.254 279.432H28.641L8.443 246.172M0.387 310.856V279.432M8.444 246.172H0.387M8.444 246.172L0.387 232.902V210.911M259.094 279.432L271.816 310.856M0.387 279.432V246.172M271.816 310.856H327.838M27.266 173.459L5.086 133.612M27.266 173.459H0.387M0.387 210.911V173.459M0.387 246.172L0.386 232.905M70.077 133.612H5.086M70.077 133.612H135.07M5.086 133.612L0.387 125.172M5.086 133.612H0.387M0.387 173.459V133.612M135.07 133.612H200.062M0.387 125.172V133.612M0.387 125.172V91.1254V45.7399V-2.87042V-4.10464V-55.0484M200.062 133.612L216.193 173.459M216.193 173.459H279.169M1.01 -2.87042H0.388M1.013 -2.87042L0.388 -4.10464M144.81 -2.86759H216.708M144.81 -2.86759L123.686 -55.0484M503.419 704.622H467.322M467.322 704.622L467.882 706.204L471.738 717.088M467.322 704.622L466.193 701.439L462.746 691.706M471.738 717.088L474.949 726.152L476.001 729.124M480.119 740.752H445.851M480.119 740.752L484.102 751.995M445.851 740.752L447.576 745.011L450.402 751.995M484.102 751.995H450.402M572.998 691.706L573.66 694.981L575.612 704.622M572.998 691.706H609.749M575.612 704.622H611.709M447.971 649.995L442.661 635.004M561.52 635.004L561.906 636.91L562.29 638.808L564.555 649.995M561.52 635.004H601.14M564.555 649.995H603.416M425.409 586.304L419.173 568.696M548.099 568.696L551.662 586.304M548.099 568.696H591.074M551.662 586.304H593.747M398.769 511.094L391.338 490.118M532.193 490.118L536.439 511.094M532.193 490.118H579.145M536.439 511.094H582.329M366.83 420.93L357.827 395.515M513.044 395.515L518.188 420.93M513.044 395.515H564.783M518.188 420.93H568.641M327.838 310.856L316.707 279.432M316.707 279.429H259.094M489.547 279.429H431.934L439.885 310.853M495.907 310.856H551.931M495.907 310.856L489.547 279.432M279.169 173.459L265.054 133.612H330.046M330.046 133.612H395.039M265.054 133.607H200.062M468.097 173.459L475.677 210.911M468.097 173.459H531.073M216.708 -2.86759H288.607H360.506M216.708 -2.86759L198.226 -55.0484M233.926 45.7399H164.487M360.506 -2.86759H432.405M198.226 -55.0484H123.686M421.844 -55.0484L432.405 -2.86759M421.844 -55.0484H496.383M432.405 -2.86759H504.304M133.625 -237.417H217.393M133.625 -237.417L108.384 -308.674M133.625 -237.417H49.857M76.418 -171.809L49.857 -237.417M76.418 -171.809H0.388M49.857 -237.417L21.01 -308.674M49.857 -237.417H0.387M217.393 -237.417H301.161M301.161 -237.417H384.929M108.384 -308.674H21.01M21.01 -308.674H0.386M21.01 -308.674L0.387 -359.618M0.387 -237.417L0.386 -308.674M0.387 -386.343V-359.618M0.387 -386.343V-471.326V-564.714V-613.555V-667.811M370.505 -308.674L384.929 -237.417M370.505 -308.674H457.879M0.386 -308.674L0.387 -359.618M384.929 -237.417L398.209 -171.809M384.929 -237.417H468.696M17.688 -564.714L0.388 -613.555M17.688 -564.714H0.388M86.716 -667.814H192.263M86.716 -667.814L0.387 -667.811M192.263 -667.814H297.81M0.387 -667.811V-668.179H1439.61V-667.811M318.679 -564.714L337.581 -471.323M318.679 -564.714L419.009 -564.712M318.679 -564.714L297.81 -667.811H403.358M647.806 704.622L647.645 703.033L647.484 701.439L647.321 699.834L647.159 698.223L646.665 693.348L646.499 691.706M647.806 704.622H611.709M647.806 704.622H683.903M646.499 691.706H609.749M646.499 691.706H683.249M611.709 704.622L611.468 703.033L611.225 701.439L610.982 699.834L610.737 698.223L609.749 691.706M683.903 704.622L683.249 691.706M683.903 704.622H720M617.194 740.752H651.463M617.194 740.752L617.41 742.18L617.84 745.011L618.268 747.823L618.479 749.22L618.901 751.995M617.194 740.752H582.925M651.463 740.752H685.731M609.749 691.706L607.716 678.315M582.925 740.752L584.92 750.612L585.202 751.995M618.901 751.995H585.202M683.249 691.706H720V678.315V664.42M607.716 678.315L605.606 664.42M605.606 664.42L605.066 660.867L604.247 655.469L603.416 649.995M720 704.622L756.097 704.624M720 704.622V717.091M720 704.622V691.709H756.75M603.416 649.995H642.277M603.416 649.995L601.14 635.004M642.277 649.995H681.139M681.139 649.995H720M596.311 603.198L594.073 588.454L593.747 586.304M720 635.004V649.995M720 635.004H759.62M720 649.995V664.42M720 649.995H758.861M593.747 586.304H635.832M593.747 586.304L591.074 568.696M635.832 586.304L634.949 577.594L634.727 575.384L634.049 568.696M635.832 586.304H677.915M634.049 568.696H591.074M634.049 568.696H677.025M677.915 586.304L677.696 581.971L677.251 573.166L677.025 568.696M677.915 586.304H720M591.074 568.696L588.285 550.325M677.025 568.696H720M588.285 550.325L585.373 531.146M585.373 531.146L583.103 516.191L582.329 511.094M720 568.696V586.304M720 568.696H762.975M720 568.696V550.325M720 586.304V603.198M720 586.304H762.085M582.329 511.094L579.145 490.118M572.312 445.112L568.641 420.93M720 490.118V511.094M720 490.118H766.952M720 511.094V531.146M720 511.094H765.89M568.641 420.93L564.783 395.515M616.522 395.515H564.783M616.522 395.515H668.261M668.261 395.515H720M556.445 340.593L551.931 310.856M720 395.515V420.93M720 395.515H771.739M720 420.93V445.112M720 420.93H770.453M551.931 310.856H607.954M551.931 310.856L547.16 279.432M607.954 310.856L604.774 279.432M607.954 310.856H663.977M604.774 279.432H547.16M604.774 279.432H662.387M663.977 310.856L662.387 279.432M663.977 310.856H720M547.16 279.432H489.547M662.387 279.432H720M536.758 210.911L531.073 173.459M536.758 210.911H475.677M720 279.432V310.856M720 279.432H777.613M720 310.856V340.593M720 310.856H776.023M531.073 173.459H594.048M531.073 173.459L525.023 133.612H590.015M594.048 173.459L590.015 133.612M594.048 173.459H657.024M590.015 133.612H655.008M657.024 173.459H720M720 173.459H782.976M511.683 45.7342L504.304 -2.87042M442.244 45.7371L432.405 -2.87042M504.304 -2.86759L496.383 -55.0484M720 -55.0484V-2.86759H791.899M720 -55.0484H794.539M478.657 -171.812L468.696 -237.417M468.696 -237.417L457.879 -308.674M720 -308.674V-237.417M720 -308.674H807.374M636.232 -237.42H720M419.009 -564.712L433.186 -471.323H337.581M419.009 -564.712L403.358 -667.811M508.905 -667.811H403.358M508.905 -667.811H614.452M614.452 -667.811H720M720 -667.811V-564.712M720 -667.811H825.548M720 -564.712V-471.323M720 -564.712H820.33M793.501 691.709H756.75M793.501 691.709H830.251M756.097 704.624L755.466 717.091M756.097 704.624L756.178 703.036L756.258 701.442L756.34 699.836L756.75 691.709M755.466 717.091L754.857 729.126M755.466 717.091H720M754.857 729.126L754.783 730.602L754.708 732.07L754.634 733.532L754.268 740.755M754.857 729.126H720M720 717.091V729.126M754.268 740.755H788.537M754.268 740.755H720M754.268 740.755L754.053 745.014L753.981 746.423L753.7 751.998M720 729.126V740.755M788.537 740.755L788.393 742.183L787.822 747.825L787.399 751.998M788.537 740.755H822.806M756.75 691.709L757.428 678.317M720 740.755H685.731L685.946 745.014L686.018 746.423L686.089 747.825L686.16 749.223L686.23 750.614L686.3 751.998M720 740.755V751.998M830.251 691.709H867.002M757.428 678.317H720M864.388 704.622H900.485M864.388 704.622L866.34 694.981L867.002 691.706M758.861 649.995L759.62 635.004M878.48 635.004L875.445 649.995M878.48 635.004H918.1M875.445 649.995H914.307M762.085 586.304L762.303 581.971L762.749 573.166L762.975 568.696M720 550.325V531.146M891.901 568.696L888.338 586.304M891.901 568.696H934.877M888.338 586.304H930.421M765.89 511.094L766.952 490.118M907.807 490.118L903.561 511.094M907.807 490.118H954.759M903.561 511.094H949.451M770.453 420.93L771.739 395.515M926.956 395.515L921.812 420.93M926.956 395.515H978.695M921.812 420.93H972.265M776.023 310.856L777.613 279.432M950.453 279.432L944.093 310.856M950.453 279.432H1008.07M944.093 310.856H1000.12M782.976 173.459L784.992 133.612H849.984M849.984 133.612H914.977M971.903 173.459H1034.88M789.439 45.7342L791.899 -2.87042M791.899 -2.86759L794.539 -55.0484M1018.16 -55.0484L1007.6 -2.86759H1079.49M1018.16 -55.0484H1092.7M800.447 -171.812L803.768 -237.417M803.768 -237.417L807.374 -308.674M803.768 -237.417H720M1069.49 -308.674L1055.07 -237.417M1069.49 -308.674H1156.87M971.304 -237.42H1055.07M820.33 -564.712L815.604 -471.323H720M820.33 -564.712L825.548 -667.811M931.095 -667.811H825.548M931.095 -667.811H1036.64M1036.64 -667.811H1142.19M1121.32 -564.712L1221.65 -564.714M1121.32 -564.712L1142.19 -667.814H1247.74M900.485 704.622L903.752 691.706M891.343 740.752H857.075M891.343 740.752L889.201 749.22L888.499 751.995M903.752 691.706H867.002M857.075 740.752L856.786 742.18L856.212 745.011L854.799 751.995M888.499 751.995H854.799M1014 691.706L1008.78 704.622M1014 691.706H1050.75M1008.78 704.622H1044.87M914.307 649.995L918.1 635.004M1036.96 635.004L1031.64 648.15L1030.89 649.995M1036.96 635.004H1076.58M1030.89 649.995H1069.75M930.421 586.304L934.877 568.696M1063.8 568.696L1056.67 586.304M1063.8 568.696H1106.78M1056.67 586.304H1098.76M949.451 511.094L954.759 490.118M1095.61 490.118L1087.12 511.094M1095.61 490.118H1142.57M1087.12 511.094H1133.01M972.265 420.93L978.695 395.515M1133.91 395.515L1123.62 420.93M1133.91 395.515H1185.65M1123.62 420.93H1174.08M1000.12 310.856L1008.07 279.432M1180.91 279.432L1168.18 310.856M1180.91 279.432H1238.52M1168.18 310.856H1224.21M1034.88 173.459L1044.96 133.612H1109.95M1109.95 133.612H1174.95M1223.81 173.459H1286.78M1067.2 45.7342L1079.49 -2.87042M1079.49 -2.86759L1092.7 -55.0484M1316.31 -55.0484L1295.19 -2.86759H1367.09L1390.85 -55.0484M1316.31 -55.0484H1390.85M1122.24 -171.812L1138.84 -237.417M1138.84 -237.417L1156.87 -308.674M1138.84 -237.417H1055.07M1418.99 -308.674L1390.14 -237.417M1418.99 -308.674H1439.61M1418.99 -308.674L1439.61 -359.618M1306.37 -237.42H1390.14M1221.65 -564.714L1247.74 -667.814M1353.28 -667.814H1247.74M1353.28 -667.814L1439.61 -667.811M1439.61 -667.811V-613.555M1439.61 -613.555V-564.714M1044.87 704.622L1050.75 691.706M1028.42 740.752L1027.77 742.18L1023.3 751.995M1028.42 740.752H994.149M994.149 740.752L992.424 745.011L989.597 751.995M1023.3 751.995H989.597M1161.01 691.706L1153.16 704.622M1161.01 691.706H1197.76M1153.16 704.622H1189.26M1069.75 649.995L1076.58 635.004M1195.44 635.004L1186.34 649.995M1195.44 635.004H1235.06M1186.34 649.995H1225.2M1098.76 586.304L1106.78 568.696M1235.7 568.696L1225.01 586.304M1235.7 568.696H1278.68M1225.01 586.304H1267.1M1133.01 511.094L1142.57 490.118M1283.42 490.118L1270.68 511.094M1283.42 490.118H1330.37M1270.68 511.094H1316.57M1174.08 420.93L1185.65 395.515M1340.87 395.515L1325.43 420.93M1340.87 395.515H1392.61M1325.43 420.93H1375.89M1224.21 310.856L1238.52 279.432M1411.36 279.432L1392.28 310.856M1411.36 279.432H1439.61M1392.28 310.856H1439.61M1286.78 173.459L1304.93 133.612H1369.92M1369.92 133.612H1434.91M1434.91 133.612H1439.61M1434.91 133.612L1439.61 125.172M1439.61 125.172V133.607V173.459M1439.61 -4.10464V-55.0484M1390.85 -55.0484L1416.43 -111.202M1390.85 -55.0484H1439.61M1416.43 -111.202H1439.61M1416.43 -111.202L1439.61 -162.109M1439.61 -111.202V-162.109M1439.61 -111.202V-55.0484M1439.61 -162.109V-171.809M1390.14 -237.417H1439.61M1439.61 -171.809V-237.417M1439.61 -237.417V-308.674M1439.61 -308.674V-359.618M1189.26 704.622L1197.76 691.706M1165.49 740.752L1164.55 742.18L1158.1 751.995M1165.49 740.752H1131.22M1131.22 740.752L1130.36 742.18L1124.4 751.995M1158.1 751.995H1124.4M1308.01 691.706L1297.55 704.622M1308.01 691.706H1344.76M1297.55 704.622H1333.65M1225.2 649.995L1235.06 635.004M1353.92 635.004L1341.78 649.995M1353.92 635.004H1393.54M1341.78 649.995H1380.64M1267.1 586.304L1278.68 568.696M1407.61 568.696L1393.35 586.304M1407.61 568.696H1439.61M1393.35 586.304H1435.43M1316.57 511.094L1330.37 490.118M1439.61 511.094V529.166M1375.89 420.93L1392.61 395.515M1439.61 420.93V402.198M1439.61 402.198L1439.76 401.989M1439.61 402.198V395.515M1392.61 395.515L1410.2 368.772M1392.61 395.515H1439.61M1410.2 368.772L1428.74 340.593M1410.2 368.772H1439.61M1428.74 340.593H1439.61M1428.74 340.593L1439.61 324.061M1439.61 368.772V340.593M1439.61 368.772V395.515M1439.61 340.593V324.061M1439.61 324.061V310.856M1439.61 310.856V279.432M1439.61 246.172V279.432M1333.65 704.622L1344.76 691.706M1302.57 740.752H1268.3M1302.57 740.752L1292.89 751.995M1268.3 740.752L1259.2 751.995M1292.89 751.995H1259.2M1439.61 691.706V704.622M1439.61 704.622V706.921M1380.64 649.995L1393.54 635.004M1433.16 635.004H1393.54M1433.16 635.004L1439.61 627.919M1433.16 635.004H1439.61M1439.61 649.995V635.004M1393.54 635.004L1406.95 619.417M1406.95 619.417L1420.9 603.198M1406.95 619.417H1439.61M1420.9 603.198L1435.43 586.304M1420.9 603.198H1439.61M1439.61 619.417V603.198M1439.61 619.417V627.919M1439.61 627.919V635.004M1435.43 586.304L1439.61 581.448M1435.43 586.304H1439.61M1439.61 603.198V586.304M1439.61 581.448V568.696M1439.61 581.448V586.304M1439.61 550.325V531.146M1439.61 550.325V568.696M1439.61 568.696H1439.84M1439.61 531.146V529.166M1439.61 529.166L1440 528.686M1439.61 717.088V706.921M1439.61 717.088V729.124M1405.37 740.752L1393.99 751.995M1405.37 740.752H1439.61M1439.61 729.124V740.752M1393.99 751.995H1427.69M1439.61 740.752H1439.64L1439.61 740.78M1439.61 740.752V740.78M720 751.995H753.7M1427.69 751.995L1439.61 740.78M1427.69 751.995H1439.61M1439.61 740.78V751.995M12.307 751.995L0.387 740.78M12.307 751.995H0.386M0.387 740.78L0.386 751.995M0.387 740.78L0.357 740.752H0.387M0.387 740.78V740.752" stroke="url(#paint0_linear_45_314)" stroke-opacity="0.9" stroke-miterlimit="10" stroke-linecap="round" stroke-linejoin="round"/>
  <defs>
    <linearGradient id="paint0_linear_45_314" x1="720" y1="773.399" x2="720" y2="-237.324" gradientUnits="userSpaceOnUse">
      <stop stop-color="#e8e9edff" stop-opacity="0"/>
      <stop offset="1" stop-color="#eaeaeaff"/>
    </linearGradient>
  </defs>
</svg>
